<?xml version="1.0" encoding="UTF-8"?>
<svg version="1.1" xmlns="http://www.w3.org/2000/svg" width="433" height="131">
<path d="M0 0 C1.9375 1.0625 1.9375 1.0625 3.1875 4.125 C3.435 5.094375 3.6825 6.06375 3.9375 7.0625 C6.4125 6.5675 6.4125 6.5675 8.9375 6.0625 C9.4015625 6.990625 9.4015625 6.990625 9.875 7.9375 C13.06939967 11.22869966 16.47253616 11.28598455 20.9375 12.0625 C20.6075 15.3625 20.2775 18.6625 19.9375 22.0625 C21.2575 22.7225 22.5775 23.3825 23.9375 24.0625 C22.9475 25.5475 22.9475 25.5475 21.9375 27.0625 C22.4325 28.5475 22.4325 28.5475 22.9375 30.0625 C22.046875 31.8515625 22.046875 31.8515625 20.6875 33.6875 C20.03007812 34.60402344 20.03007812 34.60402344 19.359375 35.5390625 C17.9375 37.0625 17.9375 37.0625 14.9375 38.0625 C15.4325 40.5375 15.4325 40.5375 15.9375 43.0625 C31.4475 42.7325 46.9575 42.4025 62.9375 42.0625 C62.9375 43.0525 62.9375 44.0425 62.9375 45.0625 C61.09375 46.46484375 61.09375 46.46484375 58.4375 48 C54.75077626 50.19876583 51.40013192 52.43786792 48.1015625 55.1875 C36.40618032 64.85404775 36.40618032 64.85404775 28.75 64.75 C27.74582031 64.63011719 26.74164063 64.51023437 25.70703125 64.38671875 C22.84091454 64.0511931 20.71732055 64.3561105 17.9375 65.0625 C17.9375 61.7625 17.9375 58.4625 17.9375 55.0625 C22.8875 55.0625 27.8375 55.0625 32.9375 55.0625 C27.6575 54.7325 22.3775 54.4025 16.9375 54.0625 C16.9375 58.3525 16.9375 62.6425 16.9375 67.0625 C22.5475 67.0625 28.1575 67.0625 33.9375 67.0625 C33.9375 70.3625 33.9375 73.6625 33.9375 77.0625 C27.9975 77.0625 22.0575 77.0625 15.9375 77.0625 C16.06125 79.99125 16.185 82.92 16.3125 85.9375 C16.34649902 86.85901855 16.38049805 87.78053711 16.41552734 88.72998047 C16.46894287 89.81883545 16.46894287 89.81883545 16.5234375 90.9296875 C16.5548584 91.67331543 16.5862793 92.41694336 16.61865234 93.18310547 C16.79169551 95.30260974 16.79169551 95.30260974 18.9375 97.0625 C18.9375 95.4125 18.9375 93.7625 18.9375 92.0625 C18.2775 92.7225 17.6175 93.3825 16.9375 94.0625 C16.9375 89.1125 16.9375 84.1625 16.9375 79.0625 C21.9375 81.0625 21.9375 81.0625 23.29956055 83.44165039 C23.63769775 84.42125732 23.97583496 85.40086426 24.32421875 86.41015625 C24.70513672 87.49103516 25.08605469 88.57191406 25.47851562 89.68554688 C25.85685547 90.82056641 26.23519531 91.95558594 26.625 93.125 C27.01494141 94.23294922 27.40488281 95.34089844 27.80664062 96.48242188 C29.50615043 101.39502202 31.0371738 106.20053733 32.01953125 111.30859375 C32.32246094 112.54738281 32.62539062 113.78617187 32.9375 115.0625 C34.4225 115.5575 34.4225 115.5575 35.9375 116.0625 C35.9375 118.0425 35.9375 120.0225 35.9375 122.0625 C32.88243112 121.45661585 30.84066033 120.50731113 28.3203125 118.69140625 C27.63702881 118.20406006 26.95374512 117.71671387 26.24975586 117.21459961 C25.52796143 116.69003174 24.80616699 116.16546387 24.0625 115.625 C22.54567132 114.53371737 21.02874255 113.44257387 19.51171875 112.3515625 C18.75036621 111.80145508 17.98901367 111.25134766 17.20458984 110.68457031 C15.05529804 109.14678281 12.88735864 107.64178423 10.70703125 106.1484375 C9.73515869 105.47639282 9.73515869 105.47639282 8.74365234 104.79077148 C7.51848734 103.94448884 6.28846906 103.10518026 5.05322266 102.27368164 C3.40234375 101.12109375 3.40234375 101.12109375 0.9375 99.0625 C0.9375 98.0725 0.9375 97.0825 0.9375 96.0625 C0.44121094 96.33964844 -0.05507812 96.61679688 -0.56640625 96.90234375 C-1.58541016 97.44568359 -1.58541016 97.44568359 -2.625 98 C-3.28628906 98.35964844 -3.94757812 98.71929687 -4.62890625 99.08984375 C-7.0625 100.0625 -7.0625 100.0625 -10.328125 100.34765625 C-15.27478924 101.29455955 -18.27418545 103.58268473 -22.25 106.5625 C-22.98814941 107.09770264 -23.72629883 107.63290527 -24.48681641 108.18432617 C-27.94278779 110.7015415 -31.35244116 113.2738251 -34.73046875 115.89453125 C-35.27743408 116.31605469 -35.82439941 116.73757812 -36.38793945 117.171875 C-37.8492011 118.3064421 -39.29619994 119.45931068 -40.7421875 120.61328125 C-41.89074219 121.33064453 -41.89074219 121.33064453 -43.0625 122.0625 C-44.5475 121.5675 -44.5475 121.5675 -46.0625 121.0625 C-45.78051758 120.19149658 -45.49853516 119.32049316 -45.20800781 118.4230957 C-44.14118454 115.12629724 -43.07520825 111.82922722 -42.00976562 108.53198242 C-41.55241137 107.1171628 -41.09473997 105.70244564 -40.63671875 104.2878418 C-37.70560418 95.23416884 -34.83146079 86.16736789 -32.0625 77.0625 C-31.4025 77.0625 -30.7425 77.0625 -30.0625 77.0625 C-29.5675 85.9725 -29.5675 85.9725 -29.0625 95.0625 C-26.38401454 92.38401454 -26.75745994 90.92279139 -26.6484375 87.1796875 C-26.60976563 86.01308594 -26.57109375 84.84648438 -26.53125 83.64453125 C-26.5003125 82.42121094 -26.469375 81.19789062 -26.4375 79.9375 C-26.39882813 78.70644531 -26.36015625 77.47539063 -26.3203125 76.20703125 C-26.22580325 73.15910789 -26.14305377 70.11082411 -26.0625 67.0625 C-19.6275 66.5675 -19.6275 66.5675 -13.0625 66.0625 C-14.3825 65.0725 -15.7025 64.0825 -17.0625 63.0625 C-17.3125 60.375 -17.3125 60.375 -17.0625 58.0625 C-18.3825 58.0625 -19.7025 58.0625 -21.0625 58.0625 C-21.0625 57.0725 -21.0625 56.0825 -21.0625 55.0625 C-26.0125 55.0625 -30.9625 55.0625 -36.0625 55.0625 C-34.7425 56.0525 -33.4225 57.0425 -32.0625 58.0625 C-31.671875 61.41796875 -31.671875 61.41796875 -31.8125 65.25 C-31.84859375 66.52230469 -31.8846875 67.79460937 -31.921875 69.10546875 C-31.96828125 70.08128906 -32.0146875 71.05710937 -32.0625 72.0625 C-37.38580943 69.40084528 -41.69770117 66.00559903 -46.20898438 62.13061523 C-48.97794599 59.76308391 -51.77663729 57.50294996 -54.7265625 55.36328125 C-55.3251709 54.92516113 -55.9237793 54.48704102 -56.54052734 54.03564453 C-57.7006241 53.19394303 -58.87002771 52.36488738 -60.04931641 51.55029297 C-61.640625 50.38671875 -61.640625 50.38671875 -64.0625 48.0625 C-64.0625 46.4125 -64.0625 44.7625 -64.0625 43.0625 C-41.2925 42.5675 -41.2925 42.5675 -18.0625 42.0625 C-16.103125 36.926875 -14.14375 31.79125 -12.125 26.5 C-11.50761963 24.89310303 -10.89023926 23.28620605 -10.25415039 21.63061523 C-9.76391446 20.3359909 -9.27421466 19.04116337 -8.78515625 17.74609375 C-8.53117065 17.09096802 -8.27718506 16.43584229 -8.01550293 15.76086426 C-6.42795999 11.53083048 -5.64748709 7.5291382 -5.0625 3.0625 C-3.47774238 0.64763124 -2.88871352 0.08753677 0 0 Z M2.9375 8.0625 C3.9375 10.0625 3.9375 10.0625 3.9375 10.0625 Z M3.9375 10.0625 C4.9375 12.0625 4.9375 12.0625 4.9375 12.0625 Z M-1.0625 32.0625 C-4.39497818 38.2624082 -4.39497818 38.2624082 -6.0625 45.0625 C-5.134375 45.619375 -4.20625 46.17625 -3.25 46.75 C0.01211046 49.11662916 1.42731224 50.37092992 2.9375 54.0625 C3.63176713 60.31090415 2.86149813 62.98438478 -1.0625 68.0625 C-1.75679379 69.3816582 -2.43780495 70.70899406 -3.0625 72.0625 C-2.11375 72.825625 -1.165 73.58875 -0.1875 74.375 C2.10359895 76.21784046 3.24974944 77.53087417 4.9375 80.0625 C5.06328609 75.63753879 5.15283803 71.21358741 5.2121582 66.78735352 C5.23694483 65.28912179 5.27078586 63.79100609 5.31469727 62.29321289 C5.63168512 51.18372105 4.13731966 42.41195412 -0.0625 32.0625 C-0.3925 32.0625 -0.7225 32.0625 -1.0625 32.0625 Z M-10.0625 56.0625 C-9.0625 58.0625 -9.0625 58.0625 -9.0625 58.0625 Z M-9.0625 58.0625 C-8.0625 62.0625 -8.0625 62.0625 -8.0625 62.0625 Z M-22.0625 77.0625 C-22.0625 81.3525 -22.0625 85.6425 -22.0625 90.0625 C-19.21625 90.1553125 -19.21625 90.1553125 -16.3125 90.25 C-15.24515625 90.28480469 -14.1778125 90.31960937 -13.078125 90.35546875 C-9.7256867 90.0297785 -8.39778342 89.45351811 -6.0625 87.0625 C-5.47916667 84.0625 -5.47916667 84.0625 -6.0625 81.0625 C-7.60756466 79.02582385 -8.78396156 78.20176922 -11.0625 77.0625 C-14.73265275 76.9247315 -18.38861348 77.01978039 -22.0625 77.0625 Z " fill="#E8B915" transform="translate(64.0625,2.9375)"/>
<path d="M0 0 C3.90719475 1.98911733 6.83161093 4.14508609 9 8 C9 9.32 9 10.64 9 12 C9.66 12 10.32 12 11 12 C11.0825 11.443125 11.165 10.88625 11.25 10.3125 C12.60675812 6.12916247 15.04923094 3.6564834 18.625 1.1875 C24.31760791 -0.81545464 29.59938145 -0.81530441 35.3125 1.125 C38.59411673 3.41450004 40.59211945 5.81309928 43 9 C43.144375 7.700625 43.28875 6.40125 43.4375 5.0625 C43.875 1.125 43.875 1.125 45 0 C48.3 0 51.6 0 55 0 C55.495 11.385 55.495 11.385 56 23 C58.64 23 61.28 23 64 23 C64.03758423 22.00818726 64.03758423 22.00818726 64.07592773 20.99633789 C64.19153102 18.01817695 64.31441754 15.0403608 64.4375 12.0625 C64.47681641 11.02158203 64.51613281 9.98066406 64.55664062 8.90820312 C64.59853516 7.91884766 64.64042969 6.92949219 64.68359375 5.91015625 C64.72025146 4.99371338 64.75690918 4.07727051 64.79467773 3.13305664 C65 1 65 1 66 0 C69.3 0 72.6 0 76 0 C76.495 12.375 76.495 12.375 77 25 C78.32 23.68 79.64 22.36 81 21 C81.515625 21.309375 82.03125 21.61875 82.5625 21.9375 C85.66665423 23.29059287 88.65115007 23.61359424 92 24 C92.33 23.34 92.66 22.68 93 22 C91.89591797 21.76216797 91.89591797 21.76216797 90.76953125 21.51953125 C80.22043309 18.99722376 80.22043309 18.99722376 77 14 C76.31509315 11.16252877 76.27349544 8.83165164 77 6 C79.53453657 2.78045355 81.11297305 1.29567565 85 0 C90.94703473 -0.53226473 95.94577678 -0.53795626 101 3 C102.375 5.1875 102.375 5.1875 103 7 C99.535 9.475 99.535 9.475 96 12 C95.236875 11.484375 94.47375 10.96875 93.6875 10.4375 C92.800625 9.963125 91.91375 9.48875 91 9 C90.01 9.33 89.02 9.66 88 10 C88.74765625 10.24234375 89.4953125 10.4846875 90.265625 10.734375 C91.25046875 11.06953125 92.2353125 11.4046875 93.25 11.75 C94.22453125 12.07484375 95.1990625 12.3996875 96.203125 12.734375 C99.24608505 14.11135692 100.92832121 15.39104003 103 18 C103.57188337 22.50358153 103.61826908 24.7903431 101.5625 28.8125 C97.43685275 32.33439399 93.04861016 34.19966936 87.5546875 33.83984375 C83.41533302 33.02700021 80.11693985 31.98142073 77 29 C76.67 30.32 76.34 31.64 76 33 C72.37 33 68.74 33 65 33 C65 32.34 65 31.68 65 31 C63.2675 31.804375 63.2675 31.804375 61.5 32.625 C57.51047909 34.11045991 54.80233508 34.14789402 50.7578125 32.87109375 C47.9940597 31.50150069 46.62635178 29.56463165 45 27 C44.01 25.515 44.01 25.515 43 24 C41.948125 25.3921875 41.948125 25.3921875 40.875 26.8125 C37.47345144 30.79824803 34.49966254 32.72149565 29.16015625 33.31640625 C24.35880709 33.50038873 20.89733902 33.41662169 16.5 31.375 C12.93715852 27.99030059 10.55659273 24.6697782 9 20 C2.73 20.33 -3.54 20.66 -10 21 C-10 21.66 -10 22.32 -10 23 C-8.58376784 23.05447047 -7.16691809 23.09300508 -5.75 23.125 C-4.56664062 23.15980469 -4.56664062 23.15980469 -3.359375 23.1953125 C-0.79268059 22.9828378 0.7916067 22.28654105 3 21 C4.98 22.32 6.96 23.64 9 25 C7.58582046 28.41760055 6.23647693 30.17429506 3 32 C-3.23928738 34.20282533 -7.79365165 34.27566106 -14 32 C-18.24765013 29.35701769 -20.33928545 26.71992555 -22 22 C-22.9292861 15.14368184 -22.11493493 10.56072288 -18 5 C-12.47864761 -0.117351 -7.31006047 -0.83120625 0 0 Z M-9.8125 9.3125 C-11.19183114 10.92869435 -11.19183114 10.92869435 -11 13 C-7.7 13 -4.4 13 -1 13 C-2.4989804 8.87825692 -2.4989804 8.87825692 -5.4375 8.0625 C-8.0268425 7.74034284 -8.0268425 7.74034284 -9.8125 9.3125 Z M22.3125 10.125 C20.45093028 12.78438531 20.12932696 14.76682611 20 18 C21.13779872 20.32731556 22.16840714 22.16840714 24 24 C26.99894961 24.26077823 29.18003295 24.43731576 31.875 23 C33.69029997 19.77280006 33.7693104 16.54025247 33 13 C30.89286554 10.38036865 30.89286554 10.38036865 28 9 C24.21667976 8.63019987 24.21667976 8.63019987 22.3125 10.125 Z " fill="#D4A214" transform="translate(322,58)"/>
<path d="M0 0 C16.07354785 -0.75344756 16.07354785 -0.75344756 23 4 C25.67348144 8.01022217 25.71022805 11.28441606 25 16 C23 19.0625 23 19.0625 21 21 C22.65 22.65 24.3 24.3 26 26 C26.29132813 25.32453125 26.58265625 24.6490625 26.8828125 23.953125 C29.40595942 18.4625034 31.23593962 14.54948825 37 12 C43.09694919 10.41724537 47.430491 10.78682173 53 14 C56.04057572 16.64397889 57.72372114 18.17116342 59 22 C59 24.97 59 27.94 59 31 C52.07 31 45.14 31 38 31 C38.99 32.32 39.98 33.64 41 35 C44.3834195 35.44131559 46.40913548 35.28066065 49.5 33.8125 C52 33 52 33 55.3125 34.375 C56.199375 34.91125 57.08625 35.4475 58 36 C56.5039904 39.80802445 54.33936849 41.69424557 51 44 C45.9299456 46.09795355 40.32257802 45.41881637 35.25 43.8125 C31.82073161 41.9000234 30.07127683 40.31404293 28 37 C28 36.01 28 35.02 28 34 C27.34 34 26.68 34 26 34 C25.9175 34.5775 25.835 35.155 25.75 35.75 C24.58612784 39.24161649 22.32118976 41.18564283 19.22949219 43.09130859 C16.44785569 44.22504173 14.14125925 44.32220635 11.140625 44.4140625 C10.02558594 44.45273438 8.91054687 44.49140625 7.76171875 44.53125 C6.60285156 44.5621875 5.44398438 44.593125 4.25 44.625 C2.48849609 44.68300781 2.48849609 44.68300781 0.69140625 44.7421875 C-2.20557268 44.8363982 -5.10254626 44.92201602 -8 45 C-8.14847696 40.088839 -8.2572708 35.17898714 -8.32958984 30.26611328 C-8.35973821 28.59563439 -8.40066552 26.9253135 -8.45263672 25.25537109 C-8.52554846 22.85214295 -8.55947188 20.45100836 -8.5859375 18.046875 C-8.61690521 17.30193787 -8.64787292 16.55700073 -8.67977905 15.78948975 C-8.68115234 13.66699219 -8.68115234 13.66699219 -8 10 C-5.04931641 7.70019531 -5.04931641 7.70019531 -2 6 C-0.57220726 2.89064982 -0.57220726 2.89064982 0 0 Z M3 10 C3 12.31 3 14.62 3 17 C6.3 17 9.6 17 13 17 C13.67958603 14.60280568 13.67958603 14.60280568 14 12 C12.21342243 9.78629949 12.21342243 9.78629949 9.8359375 9.8046875 C9.02382812 9.82789063 8.21171875 9.85109375 7.375 9.875 C6.14910156 9.90207031 6.14910156 9.90207031 4.8984375 9.9296875 C3.95871094 9.96449219 3.95871094 9.96449219 3 10 Z M40 20 C39.34 21.32 38.68 22.64 38 24 C41.3 24 44.6 24 48 24 C47.67 23.01 47.34 22.02 47 21 C44.69 20.67 42.38 20.34 40 20 Z M3 26 C3 28.97 3 31.94 3 35 C4.62490954 35.02698189 6.24994633 35.04638757 7.875 35.0625 C9.23238281 35.07990234 9.23238281 35.07990234 10.6171875 35.09765625 C13.0168585 35.16249257 13.0168585 35.16249257 15 34 C15.2502157 31.08365871 15.2502157 31.08365871 15 28 C10.7975546 25.19836974 7.99895065 25.85510288 3 26 Z " fill="#F5BB16" transform="translate(129,46)"/>
<path d="M0 0 C10.23 0 20.46 0 31 0 C30.67 2.97 30.34 5.94 30 9 C23.73 9 17.46 9 11 9 C11 11.97 11 14.94 11 18 C13.54505341 17.96675108 16.08166732 17.89935637 18.625 17.8125 C19.33785156 17.80669922 20.05070312 17.80089844 20.78515625 17.79492188 C26.52258245 17.55805566 28.85149817 15.91127079 33 12 C38.12905613 10.29031462 44.04014216 9.98893352 49.20703125 11.75390625 C52.71285636 13.63598078 54.55724413 15.35028881 56 19 C57.47274301 27.19734319 57.10894581 35.70801343 57 44 C52.33333333 44 47.66666667 44 43 44 C41.9275 44.226875 40.855 44.45375 39.75 44.6875 C35.226165 45.06448625 32.9375579 44.19594575 29 42 C26.05179286 39.43220668 26.00284091 38.02556816 25.5625 34.0625 C25.6890959 30.97240918 26.05457704 29.90701689 27.6875 27.125 C32.48425357 22.71717239 37.75343493 22.51714482 44 22 C42.85165792 20.62992257 42.85165792 20.62992257 39.75 20.8125 C36.26778825 20.98661059 34.09785183 21.49801124 31 23 C30.01 22.01 29.02 21.02 28 20 C27.67 22.31 27.34 24.62 27 27 C23.57767028 28.14077657 20.91326783 28.09815117 17.3125 28.0625 C15.54326172 28.04896484 15.54326172 28.04896484 13.73828125 28.03515625 C12.83464844 28.02355469 11.93101562 28.01195313 11 28 C11.01160156 29.07121094 11.02320313 30.14242187 11.03515625 31.24609375 C11.04453299 32.64322743 11.05363331 34.04036299 11.0625 35.4375 C11.07087891 36.14455078 11.07925781 36.85160156 11.08789062 37.58007812 C11.09653588 39.38693559 11.05220011 41.19387603 11 43 C10.505 43.495 10.505 43.495 10 44 C6.7 44 3.4 44 0 44 C0 29.48 0 14.96 0 0 Z M38 30 C37.61781233 31.65614657 37.28604898 33.32457024 37 35 C38.12534105 36.35618499 38.12534105 36.35618499 41.0625 36.0625 C42.031875 36.041875 43.00125 36.02125 44 36 C44.33 34.35 44.66 32.7 45 31 C42.69 30.67 40.38 30.34 38 30 Z " fill="#FABF17" transform="translate(191,47)"/>
<path d="M0 0 C2.97 0 5.94 0 9 0 C9.33 7.59 9.66 15.18 10 23 C12.64 23 15.28 23 18 23 C18.02505615 22.3387915 18.0501123 21.67758301 18.07592773 20.99633789 C18.19153102 18.01817695 18.31441754 15.0403608 18.4375 12.0625 C18.47681641 11.02158203 18.51613281 9.98066406 18.55664062 8.90820312 C18.59853516 7.91884766 18.64042969 6.92949219 18.68359375 5.91015625 C18.72025146 4.99371338 18.75690918 4.07727051 18.79467773 3.13305664 C19 1 19 1 20 0 C23.3 0 26.6 0 30 0 C30.33 8.25 30.66 16.5 31 25 C32.32 23.68 33.64 22.36 35 21 C35.515625 21.309375 36.03125 21.61875 36.5625 21.9375 C39.66665423 23.29059287 42.65115007 23.61359424 46 24 C46.33 23.34 46.66 22.68 47 22 C45.89591797 21.76216797 45.89591797 21.76216797 44.76953125 21.51953125 C34.22043309 18.99722376 34.22043309 18.99722376 31 14 C30.31509315 11.16252877 30.27349544 8.83165164 31 6 C33.53453657 2.78045355 35.11297305 1.29567565 39 0 C44.94703473 -0.53226473 49.94577678 -0.53795626 55 3 C56.375 5.1875 56.375 5.1875 57 7 C53.535 9.475 53.535 9.475 50 12 C49.236875 11.484375 48.47375 10.96875 47.6875 10.4375 C46.800625 9.963125 45.91375 9.48875 45 9 C44.01 9.33 43.02 9.66 42 10 C43.12148438 10.36351563 43.12148438 10.36351563 44.265625 10.734375 C45.25046875 11.06953125 46.2353125 11.4046875 47.25 11.75 C48.22453125 12.07484375 49.1990625 12.3996875 50.203125 12.734375 C53.24608505 14.11135692 54.92832121 15.39104003 57 18 C57.57188337 22.50358153 57.61826908 24.7903431 55.5625 28.8125 C51.43685275 32.33439399 47.04861016 34.19966936 41.5546875 33.83984375 C37.41533302 33.02700021 34.11693985 31.98142073 31 29 C30.67 30.32 30.34 31.64 30 33 C26.37 33 22.74 33 19 33 C19 32.34 19 31.68 19 31 C18.34 31.33 17.68 31.66 17 32 C11.52042702 32.61766523 7.37410058 33.04431644 2.875 29.625 C0.1529028 25.81406392 -0.1211442 23.98655181 -0.09765625 19.3359375 C-0.09443359 18.21445313 -0.09121094 17.09296875 -0.08789062 15.9375 C-0.07951172 14.761875 -0.07113281 13.58625 -0.0625 12.375 C-0.05798828 11.19164063 -0.05347656 10.00828125 -0.04882812 8.7890625 C-0.03701467 5.85932493 -0.02054258 2.92968728 0 0 Z " fill="#F1B817" transform="translate(368,58)"/>
<path d="M0 0 C1.17369141 0.01353516 1.17369141 0.01353516 2.37109375 0.02734375 C3.09425781 0.03894531 3.81742187 0.05054688 4.5625 0.0625 C6.25817698 0.0625 7.95492386 0.04265834 9.6484375 -0.04296875 C14.51706273 -0.21744167 17.55128709 -0.04295516 21.5625 3.0625 C22.201875 2.5675 22.84125 2.0725 23.5 1.5625 C27.61055849 -0.45083477 31.06309232 -0.80733277 35.5625 0.0625 C38.63015423 1.78446807 40.96571354 3.86892707 42.5625 7.0625 C42.64760205 9.0218604 42.66967656 10.98412794 42.66015625 12.9453125 C42.65693359 14.11191406 42.65371094 15.27851562 42.65039062 16.48046875 C42.63782227 18.31544922 42.63782227 18.31544922 42.625 20.1875 C42.62048828 21.41855469 42.61597656 22.64960937 42.61132812 23.91796875 C42.5995133 26.96619392 42.58304028 30.01432314 42.5625 33.0625 C38.9325 33.0625 35.3025 33.0625 31.5625 33.0625 C31.2325 25.4725 30.9025 17.8825 30.5625 10.0625 C28.5825 10.3925 26.6025 10.7225 24.5625 11.0625 C24.2325 18.3225 23.9025 25.5825 23.5625 33.0625 C19.9325 33.0625 16.3025 33.0625 12.5625 33.0625 C12.2325 25.8025 11.9025 18.5425 11.5625 11.0625 C9.0875 10.5675 9.0875 10.5675 6.5625 10.0625 C5.6324111 12.8527667 5.37551231 14.82779542 5.24609375 17.73046875 C5.20419922 18.62314453 5.16230469 19.51582031 5.11914062 20.43554688 C5.06016602 21.82870117 5.06016602 21.82870117 5 23.25 C4.95681641 24.19037109 4.91363281 25.13074219 4.86914062 26.09960938 C4.76311457 28.42040188 4.66230806 30.74143177 4.5625 33.0625 C0.9325 33.0625 -2.6975 33.0625 -6.4375 33.0625 C-6.4375 22.5025 -6.4375 11.9425 -6.4375 1.0625 C-4.07154857 -0.12047571 -2.62973681 -0.03886311 0 0 Z " fill="#DFAA15" transform="translate(256.4375,57.9375)"/>
<path d="M0 0 C2.2890625 1.0390625 2.2890625 1.0390625 4 2 C4 2.66 4 3.32 4 4 C4.66 4 5.32 4 6 4 C9.90165872 9.66369815 11.63887666 15.04567042 11 22 C9.19873995 25.70544925 6.40104048 27.73263968 3 30 C-3.02777339 30.71939507 -9.87733697 31.39165251 -15.1875 28 C-19.27134625 24.31936895 -20.5848441 20.08401525 -21.30078125 14.765625 C-21.32112648 10.8322137 -20.58211153 8.69969805 -18.046875 5.65234375 C-12.40842598 0.62561326 -7.53739079 -1.6132661 0 0 Z M-9.6875 8.125 C-11.54906972 10.78438531 -11.87067304 12.76682611 -12 16 C-10.86220128 18.32731556 -9.83159286 20.16840714 -8 22 C-5.00105039 22.26077823 -2.81996705 22.43731576 -0.125 21 C1.69029997 17.77280006 1.7693104 14.54025247 1 11 C-1.10713446 8.38036865 -1.10713446 8.38036865 -4 7 C-7.78332024 6.63019987 -7.78332024 6.63019987 -9.6875 8.125 Z " fill="#F3B917" transform="translate(354,60)"/>
<path d="M0 0 C0.66 0.33 1.32 0.66 2 1 C2 1.99 2 2.98 2 4 C2.66 4 3.32 4 4 4 C4.33 3.34 4.66 2.68 5 2 C5 2.66 5 3.32 5 4 C6.65 3.67 8.3 3.34 10 3 C10.309375 3.61875 10.61875 4.2375 10.9375 4.875 C14.13189967 8.16619966 17.53503616 8.22348455 22 9 C21.67 12.3 21.34 15.6 21 19 C22.32 19.66 23.64 20.32 25 21 C24.34 21.99 23.68 22.98 23 24 C23.33 24.99 23.66 25.98 24 27 C23.14453125 28.82421875 23.14453125 28.82421875 21.8125 30.6875 C21.38582031 31.31011719 20.95914063 31.93273437 20.51953125 32.57421875 C19 34 19 34 15 34 C14.34 34.66 13.68 35.32 13 36 C12.01 35.34 11.02 34.68 10 34 C6.87478167 33.83300768 6.87478167 33.83300768 4 34 C3.01 31.36 2.02 28.72 1 26 C0.34 26.99 -0.32 27.98 -1 29 C-1.66 28.67 -2.32 28.34 -3 28 C-2.86722656 27.29875 -2.73445313 26.5975 -2.59765625 25.875 C-1.76942782 21.42553925 -0.95770632 16.99726751 -0.4375 12.5 C0 9 0 9 1 6 C0.72428861 3.99124558 0.39764263 1.98821313 0 0 Z M4 5 C5 7 5 7 5 7 Z M5 7 C6 9 6 9 6 9 Z " fill="#FDF6C6" transform="translate(63,6)"/>
<path d="M0 0 C2.97 0 5.94 0 9 0 C9.33 7.59 9.66 15.18 10 23 C12.97 22.67 15.94 22.34 19 22 C20.11823815 19.76352369 20.19396061 18.35108471 20.31640625 15.8671875 C20.35830078 15.06152344 20.40019531 14.25585938 20.44335938 13.42578125 C20.48267578 12.58402344 20.52199219 11.74226563 20.5625 10.875 C20.60568359 10.02550781 20.64886719 9.17601563 20.69335938 8.30078125 C20.79954236 6.20071777 20.90028497 4.10038052 21 2 C22.99954746 1.95745644 25.00041636 1.95919217 27 2 C29.61108576 4.61108576 28.49286548 11.84623101 28.625 15.375 C28.70234375 17.11910156 28.70234375 17.11910156 28.78125 18.8984375 C28.82507813 20.0121875 28.86890625 21.1259375 28.9140625 22.2734375 C28.9548291 23.29872559 28.9955957 24.32401367 29.03759766 25.38037109 C29 28 29 28 28 31 C25.69 31 23.38 31 21 31 C21 30.34 21 29.68 21 29 C20.34 29 19.68 29 19 29 C19 29.66 19 30.32 19 31 C15.04603037 32.97698481 10.29880647 32.57069292 6 32 C3.10316132 29.7984026 1.60702769 28.21405538 0 25 C-0.084915 23.1136088 -0.107193 21.22421485 -0.09765625 19.3359375 C-0.09443359 18.21445313 -0.09121094 17.09296875 -0.08789062 15.9375 C-0.07951172 14.761875 -0.07113281 13.58625 -0.0625 12.375 C-0.05798828 11.19164063 -0.05347656 10.00828125 -0.04882812 8.7890625 C-0.03701467 5.85932493 -0.02054258 2.92968728 0 0 Z " fill="#F3B917" transform="translate(368,58)"/>
<path d="M0 0 C13.24708398 -1.04976892 13.24708398 -1.04976892 17.07421875 1.2421875 C20.62917102 5.87536853 20.3407161 10.06644487 21 16 C14.07 16 7.14 16 0 16 C0.66 17.98 1.32 19.96 2 22 C8.93 22.495 8.93 22.495 16 23 C16 24.32 16 25.64 16 27 C13.27710387 29.72289613 11.61607119 29.39495315 7.8125 29.5 C2.14103263 29.43091236 -0.8335625 28.60991878 -4.828125 24.60546875 C-7.78124202 20.55969844 -7.33903428 15.77013354 -7 11 C-6.49122987 8.57117564 -5.80196618 6.35577566 -5 4 C-3.35 3.67 -1.7 3.34 0 3 C0 2.01 0 1.02 0 0 Z M4 6 C3.34 7.32 2.68 8.64 2 10 C5.3 10 8.6 10 12 10 C11.67 9.01 11.34 8.02 11 7 C8.69 6.67 6.38 6.34 4 6 Z " fill="#F3BA17" transform="translate(165,60)"/>
<path d="M0 0 C3.50582511 1.88207453 5.35021288 3.59638256 6.79296875 7.24609375 C8.26571176 15.44343694 7.90191456 23.95410718 7.79296875 32.24609375 C3.12630208 32.24609375 -1.54036458 32.24609375 -6.20703125 32.24609375 C-7.27953125 32.47296875 -8.35203125 32.69984375 -9.45703125 32.93359375 C-13.98086625 33.31058 -16.26947335 32.4420395 -20.20703125 30.24609375 C-23.15523839 27.67830043 -23.20419034 26.27166191 -23.64453125 22.30859375 C-23.51793535 19.21850293 -23.15245421 18.15311064 -21.51953125 15.37109375 C-16.72277768 10.96326614 -11.45359632 10.76323857 -5.20703125 10.24609375 C-7.51703125 9.58609375 -9.82703125 8.92609375 -12.20703125 8.24609375 C-12.20703125 7.91609375 -12.20703125 7.58609375 -12.20703125 7.24609375 C-6.0024858 6.76882102 -6.0024858 6.76882102 -2.70703125 8.74609375 C-0.85797025 11.82786208 -1.20026031 13.75588587 -1.8515625 17.21875 C-2.30886583 19.44699411 -2.30886583 19.44699411 -2.14453125 22.55859375 C-2.20703125 25.24609375 -2.20703125 25.24609375 -4.20703125 28.24609375 C-3.21703125 28.24609375 -2.22703125 28.24609375 -1.20703125 28.24609375 C-1.20703125 28.90609375 -1.20703125 29.56609375 -1.20703125 30.24609375 C0.77296875 30.24609375 2.75296875 30.24609375 4.79296875 30.24609375 C4.68253931 27.01625713 4.55204216 23.78752849 4.41796875 20.55859375 C4.38703125 19.64658203 4.35609375 18.73457031 4.32421875 17.79492188 C4.11371935 11.26690127 4.11371935 11.26690127 1.79296875 5.24609375 C-4.32345221 1.16847977 -13.19720486 3.18800675 -20.20703125 4.24609375 C-14.84842404 -1.48207258 -7.49841575 -2.56140574 0 0 Z M-11.20703125 18.24609375 C-11.58921892 19.90224032 -11.92098227 21.57066399 -12.20703125 23.24609375 C-11.0816902 24.60227874 -11.0816902 24.60227874 -8.14453125 24.30859375 C-7.17515625 24.28796875 -6.20578125 24.26734375 -5.20703125 24.24609375 C-4.87703125 22.59609375 -4.54703125 20.94609375 -4.20703125 19.24609375 C-6.51703125 18.91609375 -8.82703125 18.58609375 -11.20703125 18.24609375 Z " fill="#F0B716" transform="translate(240.20703125,58.75390625)"/>
<path d="M0 0 C3.90719475 1.98911733 6.83161093 4.14508609 9 8 C9 9.32 9 10.64 9 12 C9.66 12 10.32 12 11 12 C11.0825 11.443125 11.165 10.88625 11.25 10.3125 C12.60675812 6.12916247 15.04923094 3.6564834 18.625 1.1875 C24.31760791 -0.81545464 29.59938145 -0.81530441 35.3125 1.125 C38.59411673 3.41450004 40.59211945 5.81309928 43 9 C43.185625 7.0509375 43.185625 7.0509375 43.375 5.0625 C43.5859375 2.84765625 43.5859375 2.84765625 44 1 C44.66 0.67 45.32 0.34 46 0 C46.01458252 0.73114014 46.02916504 1.46228027 46.04418945 2.21557617 C46.1188291 5.54007371 46.21543801 8.86358467 46.3125 12.1875 C46.33505859 13.33798828 46.35761719 14.48847656 46.38085938 15.67382812 C46.41630859 16.78564453 46.45175781 17.89746094 46.48828125 19.04296875 C46.51446533 20.06414795 46.54064941 21.08532715 46.56762695 22.13745117 C47.06162705 25.40800518 48.06411054 27.3384116 50 30 C52.29629994 31.14814997 54.07698086 31.30769809 56.625 31.5625 C57.44226563 31.64628906 58.25953125 31.73007813 59.1015625 31.81640625 C60.04128906 31.90728516 60.04128906 31.90728516 61 32 C58.02530697 33.75958405 56.37027843 34.27348703 53 33.4375 C52.34 33.29183594 51.68 33.14617187 51 32.99609375 C47.5872489 31.29638373 45.69083024 28.68013687 44.24902344 25.17358398 C43.56626211 23.12856802 42.95715138 21.07582926 42.375 19 C41.08851099 14.58685416 39.80386402 10.23659806 38 6 C37.34 6 36.68 6 36 6 C35.505 5.01 35.505 5.01 35 4 C30.60050157 2.53350052 26.58065959 2.13393733 22 3 C19.55006279 4.6197932 17.63381043 6.36180234 15.59375 8.46875 C14 10 14 10 12 10 C11.61646813 16.13650996 11.79709644 21.59662835 15 27 C19.90593922 31.78329074 25.47591282 31.76782608 32 32 C32 32.33 32 32.66 32 33 C21.33775713 33.62110153 21.33775713 33.62110153 16.5 31.375 C12.93715852 27.99030059 10.55659273 24.6697782 9 20 C2.07 20 -4.86 20 -12 20 C-12 19.34 -12 18.68 -12 18 C-5.4 18 1.2 18 8 18 C7.566875 16.246875 7.13375 14.49375 6.6875 12.6875 C6.44386719 11.70136719 6.20023437 10.71523437 5.94921875 9.69921875 C4.73712263 6.23873417 4.73712263 6.23873417 2 4 C-1.4223884 3.41781668 -1.4223884 3.41781668 -5.1875 3.3125 C-6.45980469 3.24675781 -7.73210937 3.18101563 -9.04296875 3.11328125 C-10.01878906 3.07589844 -10.99460937 3.03851563 -12 3 C-12 3.66 -12 4.32 -12 5 C-13.175625 5.4640625 -13.175625 5.4640625 -14.375 5.9375 C-16.92330128 6.92875038 -16.92330128 6.92875038 -19 8 C-17.60415208 4.62670085 -16.07634389 2.95767338 -13 1 C-8.65201052 -0.44932983 -4.54404655 -0.51669065 0 0 Z " fill="#624C08" transform="translate(322,58)"/>
<path d="M0 0 C0.66 0.33 1.32 0.66 2 1 C2.11614929 5.0830942 2.18723457 9.16576377 2.25 13.25 C2.30027344 14.98830078 2.30027344 14.98830078 2.3515625 16.76171875 C2.36445312 17.87675781 2.37734375 18.99179688 2.390625 20.140625 C2.41157227 21.16704102 2.43251953 22.19345703 2.45410156 23.25097656 C1.88035983 26.72427331 0.77863672 27.90128251 -2 30 C-2.99 30 -3.98 30 -5 30 C-5.33 26.04 -5.66 22.08 -6 18 C-6.55429687 19.87945312 -7.10859375 21.75890625 -7.6796875 23.6953125 C-8.4114039 26.17189108 -9.14317774 28.6484527 -9.875 31.125 C-10.42220703 32.98125 -10.42220703 32.98125 -10.98046875 34.875 C-11.51220703 36.67324219 -11.51220703 36.67324219 -12.0546875 38.5078125 C-12.37937012 39.60754395 -12.70405273 40.70727539 -13.03857422 41.84033203 C-13.97348877 44.91287244 -14.97002131 47.95815633 -16 51 C-15.25278687 50.45641846 -15.25278687 50.45641846 -14.49047852 49.90185547 C-12.18246802 48.22441831 -9.87249607 46.54970164 -7.5625 44.875 C-6.77939453 44.30523437 -5.99628906 43.73546875 -5.18945312 43.1484375 C-1.2184936 40.27235159 2.77158512 37.42336072 6.80859375 34.640625 C7.85164673 33.91794434 7.85164673 33.91794434 8.91577148 33.18066406 C11.79968827 31.54699631 14.62708265 31.05120569 17.859375 30.48046875 C22.59136877 29.41836066 26.11696991 27.25333303 28.9375 23.25 C29.4634375 22.13625 29.4634375 22.13625 30 21 C30.99 21.33 31.98 21.66 33 22 C32 25 31 28 30 31 C44.96582768 42.0466727 44.96582768 42.0466727 60 53 C59.505 53.99 59.505 53.99 59 55 C58.11441406 54.34515625 57.22882813 53.6903125 56.31640625 53.015625 C55.06526405 52.09353303 53.81394763 51.17167742 52.5625 50.25 C51.9017749 49.76208984 51.2410498 49.27417969 50.56030273 48.77148438 C46.81893138 46.02190179 43.04876741 43.32808815 39.21875 40.703125 C38.44200928 40.1678418 37.66526855 39.63255859 36.86499023 39.08105469 C35.34423139 38.03679276 33.81776198 37.00079317 32.28540039 35.97363281 C31.59438232 35.49764648 30.90336426 35.02166016 30.19140625 34.53125 C29.57467041 34.11423828 28.95793457 33.69722656 28.32250977 33.26757812 C27.88608154 32.84927734 27.44965332 32.43097656 27 32 C27 31.01 27 30.02 27 29 C26.50371094 29.27714844 26.00742188 29.55429688 25.49609375 29.83984375 C24.81675781 30.20207031 24.13742188 30.56429687 23.4375 30.9375 C22.77621094 31.29714844 22.11492188 31.65679687 21.43359375 32.02734375 C19 33 19 33 15.734375 33.28515625 C10.78771076 34.23205955 7.78831455 36.52018473 3.8125 39.5 C3.07435059 40.03520264 2.33620117 40.57040527 1.57568359 41.12182617 C-1.88028779 43.6390415 -5.28994116 46.2113251 -8.66796875 48.83203125 C-9.21493408 49.25355469 -9.76189941 49.67507812 -10.32543945 50.109375 C-11.7867011 51.2439421 -13.23369994 52.39681068 -14.6796875 53.55078125 C-15.44539063 54.02902344 -16.21109375 54.50726563 -17 55 C-17.99 54.67 -18.98 54.34 -20 54 C-19.71801758 53.12899658 -19.43603516 52.25799316 -19.14550781 51.3605957 C-18.07868454 48.06379724 -17.01270825 44.76672722 -15.94726562 41.46948242 C-15.48991137 40.0546628 -15.03223997 38.63994564 -14.57421875 37.2253418 C-11.64310418 28.17166884 -8.76896079 19.10486789 -6 10 C-5.34 10 -4.68 10 -4 10 C-3.67 15.94 -3.34 21.88 -3 28 C-0.32151454 25.32151454 -0.69495994 23.86029139 -0.5859375 20.1171875 C-0.54726563 18.95058594 -0.50859375 17.78398438 -0.46875 16.58203125 C-0.4378125 15.35871094 -0.406875 14.13539062 -0.375 12.875 C-0.33632813 11.64394531 -0.29765625 10.41289063 -0.2578125 9.14453125 C-0.1633001 6.09650624 -0.07774506 3.04849138 0 0 Z " fill="#B28402" transform="translate(38,70)"/>
<path d="M0 0 C2.89879389 3.47855266 3.00102965 6.58937382 2.97265625 11.015625 C2.96943359 11.90507813 2.96621094 12.79453125 2.96289062 13.7109375 C2.95451172 14.63132812 2.94613281 15.55171875 2.9375 16.5 C2.93298828 17.43585938 2.92847656 18.37171875 2.92382812 19.3359375 C2.91206918 21.64069041 2.89563426 23.94531227 2.875 26.25 C0.895 26.25 -1.085 26.25 -3.125 26.25 C-3.125 25.59 -3.125 24.93 -3.125 24.25 C-4.115 24.58 -5.105 24.91 -6.125 25.25 C-6.125 22.25 -6.125 22.25 -5.125 21.25 C-5.05241554 18.75944578 -5.1286364 16.28363503 -5.1875 13.79296875 C-5.125 11.25 -5.125 11.25 -4.5625 9.03515625 C-3.89305573 7.18969774 -3.89305573 7.18969774 -5.125 5.5 C-8.17682326 3.59261046 -10.59696862 3.94585936 -14.125 4.25 C-16.95878132 5.1474827 -16.95878132 5.1474827 -19.125 6.25 C-22.125 2.5 -22.125 2.5 -22.125 0.25 C-14.93925573 -1.91928129 -6.84179638 -3.83140597 0 0 Z " fill="#F3B917" transform="translate(242.125,62.75)"/>
<path d="M0 0 C5.37329879 4.58083386 5.37329879 4.58083386 6.671875 8.4765625 C6.671875 11.4465625 6.671875 14.4165625 6.671875 17.4765625 C-0.258125 17.4765625 -7.188125 17.4765625 -14.328125 17.4765625 C-13.338125 18.7965625 -12.348125 20.1165625 -11.328125 21.4765625 C-7.9447055 21.91787809 -5.91898952 21.75722315 -2.828125 20.2890625 C-0.328125 19.4765625 -0.328125 19.4765625 2.984375 20.8515625 C3.87125 21.3878125 4.758125 21.9240625 5.671875 22.4765625 C4.1758654 26.28458695 2.01124349 28.17080807 -1.328125 30.4765625 C-6.3981794 32.57451605 -12.00554698 31.89537887 -17.078125 30.2890625 C-21.52096095 27.81132707 -23.72321606 25.29128932 -25.328125 20.4765625 C-26.08798307 13.75724617 -25.78770502 8.63312219 -21.7578125 3.06640625 C-16.23959821 -3.06996865 -6.96334304 -4.55654997 0 0 Z M-16.328125 0.4765625 C-16.328125 1.4665625 -16.328125 2.4565625 -16.328125 3.4765625 C-17.978125 3.8065625 -19.628125 4.1365625 -21.328125 4.4765625 C-23.45590843 10.72692633 -24.79119675 17.01139257 -22.140625 23.2890625 C-19.1650134 26.88031787 -16.82511561 29.24639566 -12.1015625 29.97265625 C-10.98007813 29.95332031 -9.85859375 29.93398437 -8.703125 29.9140625 C-7.57648438 29.91277344 -6.44984375 29.91148438 -5.2890625 29.91015625 C-2.13498458 29.4482794 -1.20118147 28.98061317 0.671875 26.4765625 C0.341875 25.4865625 0.011875 24.4965625 -0.328125 23.4765625 C-7.258125 22.9815625 -7.258125 22.9815625 -14.328125 22.4765625 C-14.988125 20.4965625 -15.648125 18.5165625 -16.328125 16.4765625 C-9.398125 16.4765625 -2.468125 16.4765625 4.671875 16.4765625 C4.15681856 8.4474692 4.15681856 8.4474692 0.74609375 1.71875 C-4.06725009 -1.1638175 -10.90759613 0.04701116 -16.328125 0.4765625 Z " fill="#C89B11" transform="translate(181.328125,59.5234375)"/>
<path d="M0 0 C3.17660083 1.58830042 3.86799684 4.80484426 5.1875 7.9375 C5.47302734 8.58396484 5.75855469 9.23042969 6.05273438 9.89648438 C6.76746209 11.57113836 7.39063089 13.28419961 8 15 C7.67 15.66 7.34 16.32 7 17 C6.67 16.67 6.34 16.34 6 16 C6 18.97 6 21.94 6 25 C6.66 25 7.32 25 8 25 C8.66 25.66 9.32 26.32 10 27 C10.99 27.33 11.98 27.66 13 28 C13 28.66 13 29.32 13 30 C13.598125 29.67 14.19625 29.34 14.8125 29 C17 28 17 28 20 28 C20.33 26.68 20.66 25.36 21 24 C21.66 24 22.32 24 23 24 C24 27 24 27 23.14453125 28.82421875 C22.70496094 29.43910156 22.26539062 30.05398437 21.8125 30.6875 C21.38582031 31.31011719 20.95914063 31.93273437 20.51953125 32.57421875 C19 34 19 34 15 34 C14.34 34.66 13.68 35.32 13 36 C12.01 35.34 11.02 34.68 10 34 C6.87478167 33.83300768 6.87478167 33.83300768 4 34 C3.01 31.36 2.02 28.72 1 26 C0.34 26.99 -0.32 27.98 -1 29 C-1.66 28.67 -2.32 28.34 -3 28 C-2.86722656 27.29875 -2.73445313 26.5975 -2.59765625 25.875 C-1.76942782 21.42553925 -0.95770632 16.99726751 -0.4375 12.5 C0 9 0 9 1 6 C0.72428861 3.99124558 0.39764263 1.98821313 0 0 Z " fill="#FBE87D" transform="translate(63,6)"/>
<path d="M0 0 C10.23 0 20.46 0 31 0 C30.67 2.97 30.34 5.94 30 9 C23.73 9 17.46 9 11 9 C11 11.97 11 14.94 11 18 C13.62538284 17.85946128 16.25017427 17.71281053 18.875 17.5625 C19.62136719 17.52318359 20.36773437 17.48386719 21.13671875 17.44335938 C25.19986864 17.28426376 25.19986864 17.28426376 29 16 C30.5625 18.375 30.5625 18.375 32 21 C31.67 21.66 31.34 22.32 31 23 C30.01 22.01 29.02 21.02 28 20 C27.67 22.31 27.34 24.62 27 27 C23.43954823 28.18681726 20.56191663 28.09689832 16.8125 28.0625 C15.54019531 28.05347656 14.26789063 28.04445313 12.95703125 28.03515625 C11.49330078 28.01775391 11.49330078 28.01775391 10 28 C10 27.34 10 26.68 10 26 C14.95 26 19.9 26 25 26 C25 23.69 25 21.38 25 19 C23.39318359 19.01740234 23.39318359 19.01740234 21.75390625 19.03515625 C20.35677257 19.04453299 18.95963701 19.05363331 17.5625 19.0625 C16.85544922 19.07087891 16.14839844 19.07925781 15.41992188 19.08789062 C13.61306441 19.09653588 11.80612397 19.05220011 10 19 C8.10114904 17.10114904 8.87632494 14.42752097 8.8671875 11.91015625 C9 10 9 10 10 8 C16.27 8 22.54 8 29 8 C28.67 6.02 28.34 4.04 28 2 C15.13 1.505 15.13 1.505 2 1 C2 14.86 2 28.72 2 43 C4.31 43 6.62 43 9 43 C9 43.33 9 43.66 9 44 C6.03 44 3.06 44 0 44 C0 29.48 0 14.96 0 0 Z " fill="#5D4908" transform="translate(191,47)"/>
<path d="M0 0 C16.07354785 -0.75344756 16.07354785 -0.75344756 23 4 C25.67548031 8.01322046 25.58740465 11.28373655 25 16 C23.5 18.5625 23.5 18.5625 22 20 C21.34 19.67 20.68 19.34 20 19 C20.33 18.01 20.66 17.02 21 16 C21.66 16 22.32 16 23 16 C22.79662373 14.57940157 22.5609859 13.16340602 22.3125 11.75 C22.18488281 10.96109375 22.05726563 10.1721875 21.92578125 9.359375 C20.61005227 6.00620917 19.07634062 4.85242016 16 3 C13.27444524 2.55939218 10.9119316 2.30735645 8.1875 2.25 C7.49462891 2.22035156 6.80175781 2.19070312 6.08789062 2.16015625 C4.39253787 2.09000372 2.69626688 2.04267338 1 2 C0.87625 2.763125 0.7525 3.52625 0.625 4.3125 C0 7 0 7 -2 10 C-3.32 10 -4.64 10 -6 10 C-6 20.89 -6 31.78 -6 43 C1.59 43 9.18 43 17 43 C17 43.33 17 43.66 17 44 C4.625 44.495 4.625 44.495 -8 45 C-8.13790221 40.08659537 -8.25725717 35.17991302 -8.32958984 30.26611328 C-8.35973821 28.59563439 -8.40066552 26.9253135 -8.45263672 25.25537109 C-8.52554846 22.85214295 -8.55947188 20.45100836 -8.5859375 18.046875 C-8.61690521 17.30193787 -8.64787292 16.55700073 -8.67977905 15.78948975 C-8.68115234 13.66699219 -8.68115234 13.66699219 -8 10 C-5.04931641 7.70019531 -5.04931641 7.70019531 -2 6 C-0.57220726 2.89064982 -0.57220726 2.89064982 0 0 Z " fill="#A9850E" transform="translate(129,46)"/>
<path d="M0 0 C0.66 0 1.32 0 2 0 C2 0.99 2 1.98 2 3 C0.15625 4.40234375 0.15625 4.40234375 -2.5 5.9375 C-6.18672374 8.13626583 -9.53736808 10.37536792 -12.8359375 13.125 C-24.53131968 22.79154775 -24.53131968 22.79154775 -32.1875 22.6875 C-33.19167969 22.56761719 -34.19585937 22.44773437 -35.23046875 22.32421875 C-38.09658546 21.9886931 -40.22017945 22.2936105 -43 23 C-43 19.7 -43 16.4 -43 13 C-40.70890403 12.91924335 -38.41700733 12.86092269 -36.125 12.8125 C-34.84882812 12.77769531 -33.57265625 12.74289063 -32.2578125 12.70703125 C-31.18273437 12.80371094 -30.10765625 12.90039062 -29 13 C-28.01 14.485 -28.01 14.485 -27 16 C-27.66 16.99 -28.32 17.98 -29 19 C-25.93507786 19.29677943 -24.4048441 19.26158061 -21.78125 17.56640625 C-21.0284375 16.90511719 -20.275625 16.24382813 -19.5 15.5625 C-14.92400971 11.69050822 -10.18595983 8.28652444 -5.203125 4.97094727 C-2.09322696 2.96437676 -2.09322696 2.96437676 0 0 Z " fill="#BA8F08" transform="translate(125,45)"/>
<path d="M0 0 C3.3 0 6.6 0 10 0 C10.33 8.25 10.66 16.5 11 25 C11.66 24.67 12.32 24.34 13 24 C13.0825 24.78375 13.165 25.5675 13.25 26.375 C13.71427276 29.07262234 13.71427276 29.07262234 15.6875 30.125 C18.42208482 31.15970777 20.83675041 31.41691074 23.75 31.625 C24.73484375 31.69976562 25.7196875 31.77453125 26.734375 31.8515625 C27.48203125 31.90054688 28.2296875 31.94953125 29 32 C29 32.33 29 32.66 29 33 C23.84843733 34.28789067 19.9031972 33.8152262 15 32 C12.5 30.375 12.5 30.375 11 29 C10.67 30.32 10.34 31.64 10 33 C6.37 33 2.74 33 -1 33 C-1 31.68 -1 30.36 -1 29 C-0.34 29 0.32 29 1 29 C1 29.66 1 30.32 1 31 C3.31 31 5.62 31 8 31 C7.67 21.76 7.34 12.52 7 3 C4.03 2.505 4.03 2.505 1 2 C1.03480469 3.26457031 1.06960938 4.52914062 1.10546875 5.83203125 C1.13360677 7.49217423 1.16090691 9.15233156 1.1875 10.8125 C1.21263672 11.64587891 1.23777344 12.47925781 1.26367188 13.33789062 C1.27333984 14.14033203 1.28300781 14.94277344 1.29296875 15.76953125 C1.3086792 16.50792236 1.32438965 17.24631348 1.34057617 18.00708008 C0.91074167 20.52230522 -0.07463062 21.39441516 -2 23 C-1.86183041 19.35383329 -1.71318466 15.70816926 -1.5625 12.0625 C-1.50352539 10.50112305 -1.50352539 10.50112305 -1.44335938 8.90820312 C-1.40146484 7.91884766 -1.35957031 6.92949219 -1.31640625 5.91015625 C-1.27974854 4.99371338 -1.24309082 4.07727051 -1.20532227 3.13305664 C-1 1 -1 1 0 0 Z " fill="#80630B" transform="translate(388,58)"/>
<path d="M0 0 C3.0735547 1.70540923 5.40579136 3.81158271 7 7 C7.08510205 8.9593604 7.10717656 10.92162794 7.09765625 12.8828125 C7.09443359 14.04941406 7.09121094 15.21601562 7.08789062 16.41796875 C7.07951172 17.64128906 7.07113281 18.86460938 7.0625 20.125 C7.05798828 21.35605469 7.05347656 22.58710937 7.04882812 23.85546875 C7.0370133 26.90369392 7.02054028 29.95182314 7 33 C3.37 33 -0.26 33 -4 33 C-4.33 25.41 -4.66 17.82 -5 10 C-5.66 9.67 -6.32 9.34 -7 9 C-3.125 9.875 -3.125 9.875 -2 11 C-1.91330568 12.4887186 -1.89296506 13.981445 -1.90234375 15.47265625 C-1.90556641 16.37177734 -1.90878906 17.27089844 -1.91210938 18.19726562 C-1.92048828 19.14279297 -1.92886719 20.08832031 -1.9375 21.0625 C-1.94201172 22.01189453 -1.94652344 22.96128906 -1.95117188 23.93945312 C-1.9629989 26.29303065 -1.97947975 28.64648477 -2 31 C0.31 31 2.62 31 5 31 C4.9192614 27.06165122 4.80640623 23.12486673 4.6875 19.1875 C4.66494141 18.06794922 4.64238281 16.94839844 4.61914062 15.79492188 C4.5659668 14.18520508 4.5659668 14.18520508 4.51171875 12.54296875 C4.48553467 11.55321045 4.45935059 10.56345215 4.43237305 9.54370117 C3.9357616 6.62207798 3.36061456 5.73399515 1 4 C-2.14930893 2.95023036 -4.38814456 2.89868405 -7.6875 2.9375 C-8.68136719 2.94652344 -9.67523438 2.95554688 -10.69921875 2.96484375 C-11.45847656 2.97644531 -12.21773438 2.98804688 -13 3 C-10.82532589 -1.34934823 -4.244279 -0.66520216 0 0 Z " fill="#C99B10" transform="translate(292,58)"/>
<path d="M0 0 C0.66 0.33 1.32 0.66 2 1 C2.11614929 5.0830942 2.18723457 9.16576377 2.25 13.25 C2.30027344 14.98830078 2.30027344 14.98830078 2.3515625 16.76171875 C2.36445312 17.87675781 2.37734375 18.99179688 2.390625 20.140625 C2.41157227 21.16704102 2.43251953 22.19345703 2.45410156 23.25097656 C1.88035983 26.72427331 0.77863672 27.90128251 -2 30 C-2.99 30 -3.98 30 -5 30 C-5.33 26.04 -5.66 22.08 -6 18 C-6.53109375 19.83304688 -7.0621875 21.66609375 -7.609375 23.5546875 C-8.3226583 25.9948672 -9.03621446 28.43496716 -9.75 30.875 C-10.27207031 32.68097656 -10.27207031 32.68097656 -10.8046875 34.5234375 C-12.85719078 41.51715238 -15.1249316 48.29989106 -18 55 C-18.66 54.67 -19.32 54.34 -20 54 C-19.71801758 53.12899658 -19.43603516 52.25799316 -19.14550781 51.3605957 C-18.07868454 48.06379724 -17.01270825 44.76672722 -15.94726562 41.46948242 C-15.48991137 40.0546628 -15.03223997 38.63994564 -14.57421875 37.2253418 C-11.64310418 28.17166884 -8.76896079 19.10486789 -6 10 C-5.34 10 -4.68 10 -4 10 C-3.67 15.94 -3.34 21.88 -3 28 C-0.32151454 25.32151454 -0.69495994 23.86029139 -0.5859375 20.1171875 C-0.54726563 18.95058594 -0.50859375 17.78398438 -0.46875 16.58203125 C-0.4378125 15.35871094 -0.406875 14.13539062 -0.375 12.875 C-0.33632813 11.64394531 -0.29765625 10.41289063 -0.2578125 9.14453125 C-0.1633001 6.09650624 -0.07774506 3.04849138 0 0 Z " fill="#BA8D04" transform="translate(38,70)"/>
<path d="M0 0 C3.50582511 1.88207453 5.35021288 3.59638256 6.79296875 7.24609375 C8.26571176 15.44343694 7.90191456 23.95410718 7.79296875 32.24609375 C4.16296875 32.24609375 0.53296875 32.24609375 -3.20703125 32.24609375 C-3.20703125 30.92609375 -3.20703125 29.60609375 -3.20703125 28.24609375 C-2.54703125 28.24609375 -1.88703125 28.24609375 -1.20703125 28.24609375 C-1.20703125 28.90609375 -1.20703125 29.56609375 -1.20703125 30.24609375 C0.77296875 30.24609375 2.75296875 30.24609375 4.79296875 30.24609375 C4.68253931 27.01625713 4.55204216 23.78752849 4.41796875 20.55859375 C4.38703125 19.64658203 4.35609375 18.73457031 4.32421875 17.79492188 C4.11371935 11.26690127 4.11371935 11.26690127 1.79296875 5.24609375 C-4.32345221 1.16847977 -13.19720486 3.18800675 -20.20703125 4.24609375 C-14.84842404 -1.48207258 -7.49841575 -2.56140574 0 0 Z " fill="#C69912" transform="translate(240.20703125,58.75390625)"/>
<path d="M0 0 C0.33 0.66 0.66 1.32 1 2 C2.65 1.67 4.3 1.34 6 1 C6.309375 1.61875 6.61875 2.2375 6.9375 2.875 C10.13189967 6.16619966 13.53503616 6.22348455 18 7 C17.67 10.3 17.34 13.6 17 17 C18.32 17.66 19.64 18.32 21 19 C20.67 19.66 20.34 20.32 20 21 C15.52459016 22.26229508 15.52459016 22.26229508 13 21 C13 18.36 13 15.72 13 13 C9.61152523 10.76653839 9.61152523 10.76653839 6 9 C3.5756566 9.58255237 3.5756566 9.58255237 2 11 C1.8046875 8.94921875 1.609375 6.8984375 1.4140625 4.84765625 C1.27742188 4.23792969 1.14078125 3.62820312 1 3 C0.34 2.67 -0.32 2.34 -1 2 C-0.67 1.34 -0.34 0.68 0 0 Z " fill="#F0E6AE" transform="translate(67,8)"/>
<path d="M0 0 C4.20820145 -0.08742801 8.41616776 -0.14053641 12.625 -0.1875 C14.40970703 -0.22520508 14.40970703 -0.22520508 16.23046875 -0.26367188 C27.18235503 -0.35544746 27.18235503 -0.35544746 32 3 C33 4 33 4 33.0625 7.5625 C33.041875 8.696875 33.02125 9.83125 33 11 C30.48203847 12.58538318 29.32134414 13.0373656 26.3125 12.6875 C24 12 24 12 23 11 C22.95936168 9.33382885 22.957279 7.66611905 23 6 C21.68 6 20.36 6 19 6 C19 5.01 19 4.02 19 3 C12.73 2.67 6.46 2.34 0 2 C0 1.34 0 0.68 0 0 Z M30 4 C31 6 31 6 31 6 Z M31 6 C32 10 32 10 32 10 Z " fill="#886702" transform="translate(24,55)"/>
<path d="M0 0 C3.26839346 1.63419673 3.80455325 3.59297678 5 7 C4.68879599 10.42880127 3.85122165 13.67053812 3 17 C2.65549886 18.99810662 2.31622777 20.99722415 2 23 C2.66 23 3.32 23 4 23 C4 24.32 4 25.64 4 27 C4.99 27 5.98 27 7 27 C7 27.99 7 28.98 7 30 C8.32 30 9.64 30 11 30 C11.33 30.99 11.66 31.98 12 33 C9.29120665 34.35439668 6.99066732 34.06501451 4 34 C3.01 31.36 2.02 28.72 1 26 C0.34 26.99 -0.32 27.98 -1 29 C-1.66 28.67 -2.32 28.34 -3 28 C-2.86722656 27.29875 -2.73445313 26.5975 -2.59765625 25.875 C-1.76942782 21.42553925 -0.95770632 16.99726751 -0.4375 12.5 C0 9 0 9 1 6 C0.72428861 3.99124558 0.39764263 1.98821313 0 0 Z " fill="#FDDE52" transform="translate(63,6)"/>
<path d="M0 0 C0.66 0.33 1.32 0.66 2 1 C2.33 2.65 2.66 4.3 3 6 C17.85 6 32.7 6 48 6 C47.67 6.66 47.34 7.32 47 8 C40.80778382 8.26656494 34.6155508 8.49969494 28.42089844 8.7019043 C26.31378701 8.77539686 24.20697351 8.85802123 22.10058594 8.94995117 C19.07258529 9.08051765 16.04503162 9.17820665 13.015625 9.26953125 C11.60292328 9.34105156 11.60292328 9.34105156 10.16168213 9.41401672 C3.62949943 9.56532772 3.62949943 9.56532772 0.35839844 6.62768555 C-1 4 -1 4 -0.75 1.6875 C-0.5025 1.130625 -0.255 0.57375 0 0 Z " fill="#F4D23E" transform="translate(77,40)"/>
<path d="M0 0 C6.27 0 12.54 0 19 0 C19 0.33 19 0.66 19 1 C13.06 1 7.12 1 1 1 C1 3.97 1 6.94 1 10 C3.62538284 9.85946128 6.25017427 9.71281053 8.875 9.5625 C9.62136719 9.52318359 10.36773437 9.48386719 11.13671875 9.44335938 C15.19986864 9.28426376 15.19986864 9.28426376 19 8 C20.5625 10.375 20.5625 10.375 22 13 C21.67 13.66 21.34 14.32 21 15 C20.01 14.01 19.02 13.02 18 12 C17.67 14.31 17.34 16.62 17 19 C13.43954823 20.18681726 10.56191663 20.09689832 6.8125 20.0625 C5.54019531 20.05347656 4.26789063 20.04445313 2.95703125 20.03515625 C1.49330078 20.01775391 1.49330078 20.01775391 0 20 C0 19.34 0 18.68 0 18 C4.95 18 9.9 18 15 18 C15 15.69 15 13.38 15 11 C13.39318359 11.01740234 13.39318359 11.01740234 11.75390625 11.03515625 C10.35677257 11.04453299 8.95963701 11.05363331 7.5625 11.0625 C6.85544922 11.07087891 6.14839844 11.07925781 5.41992188 11.08789062 C3.61306441 11.09653588 1.80612397 11.05220011 0 11 C-1.89885096 9.10114904 -1.12367506 6.42752097 -1.1328125 3.91015625 C-1 2 -1 2 0 0 Z " fill="#775D0A" transform="translate(201,55)"/>
<path d="M0 0 C5.37329879 4.58083386 5.37329879 4.58083386 6.671875 8.4765625 C6.671875 11.4465625 6.671875 14.4165625 6.671875 17.4765625 C-0.588125 17.4765625 -7.848125 17.4765625 -15.328125 17.4765625 C-15.328125 17.1465625 -15.328125 16.8165625 -15.328125 16.4765625 C-8.728125 16.4765625 -2.128125 16.4765625 4.671875 16.4765625 C4.0221875 13.8778125 4.0221875 13.8778125 3.359375 11.2265625 C2.99392578 9.76476562 2.99392578 9.76476562 2.62109375 8.2734375 C1.61078611 5.29656396 1.01445859 3.58488773 -1.328125 1.4765625 C-4.01340964 1.01874348 -6.32464214 0.78183946 -9.015625 0.7265625 C-9.71751953 0.69691406 -10.41941406 0.66726562 -11.14257812 0.63671875 C-12.87047924 0.56619217 -14.5993082 0.51909182 -16.328125 0.4765625 C-16.328125 1.4665625 -16.328125 2.4565625 -16.328125 3.4765625 C-17.978125 3.8065625 -19.628125 4.1365625 -21.328125 4.4765625 C-20.06534368 0.68821855 -18.80699548 0.25644972 -15.328125 -1.5234375 C-9.99797468 -3.16516758 -4.75443394 -3.11112288 0 0 Z " fill="#9E7B0E" transform="translate(181.328125,59.5234375)"/>
<path d="M0 0 C5.02254631 -0.2954439 7.89542386 0.01485372 12 3 C11.67 3.66 11.34 4.32 11 5 C10.236875 4.484375 9.47375 3.96875 8.6875 3.4375 C7.800625 2.963125 6.91375 2.48875 6 2 C5.01 2.33 4.02 2.66 3 3 C3.74765625 3.24234375 4.4953125 3.4846875 5.265625 3.734375 C6.74289062 4.23710938 6.74289062 4.23710938 8.25 4.75 C9.22453125 5.07484375 10.1990625 5.3996875 11.203125 5.734375 C14.24608505 7.11135692 15.92832121 8.39104003 18 11 C18.5968778 15.70041265 18.66933757 17.83485682 16.3125 21.9375 C13.78804723 24.18903896 12.32957907 24.72253508 9 25 C9.639375 24.731875 10.27875 24.46375 10.9375 24.1875 C13.33131686 23.11332248 13.33131686 23.11332248 14 20 C14.66 20 15.32 20 16 20 C15.9175 18.741875 15.835 17.48375 15.75 16.1875 C15.70359375 15.47980469 15.6571875 14.77210937 15.609375 14.04296875 C14.76248374 11.20371153 13.52556105 10.48843203 11 9 C8.49682179 8.04776774 8.49682179 8.04776774 5.875 7.375 C1.13245033 6.06622517 1.13245033 6.06622517 -1 5 C-0.67 3.35 -0.34 1.7 0 0 Z " fill="#C79A12" transform="translate(407,65)"/>
<path d="M0 0 C0.33 0 0.66 0 1 0 C1 11.22 1 22.44 1 34 C8.59 34 16.18 34 24 34 C24 34.33 24 34.66 24 35 C11.625 35.495 11.625 35.495 -1 36 C-1.02290956 31.03371566 -1.04283643 26.06761337 -1.05493164 21.10131836 C-1.0599719 19.41055684 -1.06680405 17.71979971 -1.07543945 16.02905273 C-1.08751857 13.60399293 -1.09323123 11.17899056 -1.09765625 8.75390625 C-1.10281754 7.99348526 -1.10797882 7.23306427 -1.11329651 6.44960022 C-1.11349238 4.6326743 -1.06197277 2.81586873 -1 1 C-0.67 0.67 -0.34 0.34 0 0 Z " fill="#271E02" transform="translate(122,55)"/>
<path d="M0 0 C2.97 0 5.94 0 9 0 C9.33 7.59 9.66 15.18 10 23 C12.97 23 15.94 23 19 23 C16 26 16 26 13 26.375 C10 26 10 26 8.34448242 24.75463867 C6.66593292 22.56402032 6.58021137 21.29029891 6.48828125 18.55078125 C6.45283203 17.70322266 6.41738281 16.85566406 6.38085938 15.98242188 C6.35830078 15.10134766 6.33574219 14.22027344 6.3125 13.3125 C6.26125977 11.97348633 6.26125977 11.97348633 6.20898438 10.60742188 C6.12654352 8.40507329 6.05738449 6.20312062 6 4 C3.03 3.505 3.03 3.505 0 3 C0 2.01 0 1.02 0 0 Z " fill="#C59710" transform="translate(368,58)"/>
<path d="M0 0 C4.75 0.75 4.75 0.75 7 3 C7.22705078 5.06298828 7.22705078 5.06298828 7.1953125 7.5703125 C7.18886719 8.46621094 7.18242187 9.36210938 7.17578125 10.28515625 C7.15902344 11.22230469 7.14226562 12.15945312 7.125 13.125 C7.11597656 14.06988281 7.10695313 15.01476562 7.09765625 15.98828125 C7.07404522 18.32577292 7.04111516 20.66276123 7 23 C9.64 23 12.28 23 15 23 C15 16.73 15 10.46 15 4 C15.33 4 15.66 4 16 4 C16 10.93 16 17.86 16 25 C12.37 25 8.74 25 5 25 C4.96132813 22.67001953 4.96132813 22.67001953 4.921875 20.29296875 C4.86560261 18.25778406 4.80825509 16.2226289 4.75 14.1875 C4.73582031 13.16333984 4.72164063 12.13917969 4.70703125 11.08398438 C4.65869141 9.60961914 4.65869141 9.60961914 4.609375 8.10546875 C4.58842773 7.19949951 4.56748047 6.29353027 4.54589844 5.36010742 C4.19860416 2.82525007 4.19860416 2.82525007 1.96191406 1.1809082 C1.31448242 0.7912085 0.66705078 0.40150879 0 0 Z " fill="#5A4607" transform="translate(264,66)"/>
<path d="M0 0 C6.625 -0.25 6.625 -0.25 10 2 C10 3.32 10 4.64 10 6 C9.11957031 6.03738281 8.23914063 6.07476562 7.33203125 6.11328125 C6.17058594 6.17902344 5.00914062 6.24476562 3.8125 6.3125 C2.66394531 6.37050781 1.51539063 6.42851563 0.33203125 6.48828125 C-3.20473664 7.03144256 -5.19080531 7.80708203 -8 10 C-9.18088423 13.98548426 -9.42601594 16.06682223 -7.6875 19.875 C-5.68275825 22.39948962 -4.78654502 22.89555714 -1.6171875 23.31640625 C-0.71226562 23.39761719 0.19265625 23.47882813 1.125 23.5625 C2.03507813 23.64628906 2.94515625 23.73007813 3.8828125 23.81640625 C4.58148438 23.87699219 5.28015625 23.93757813 6 24 C6 24.33 6 24.66 6 25 C0.32030747 26.27503302 -2.90281821 25.84265908 -8 23 C-10.94820714 20.43220668 -10.99715909 19.02556816 -11.4375 15.0625 C-11.3109041 11.97240918 -10.94542296 10.90701689 -9.3125 8.125 C-4.51574643 3.71717239 0.75343493 3.51714482 7 3 C4.69 2.34 2.38 1.68 0 1 C0 0.67 0 0.34 0 0 Z " fill="#2B2103" transform="translate(228,66)"/>
<path d="M0 0 C4.62 0 9.24 0 14 0 C12.33333333 1.66666667 10.66666667 3.33333333 9 5 C8.01 6.11375 8.01 6.11375 7 7.25 C4.66947084 9.28921301 3.04001379 9.66222069 0 10 C0 6.7 0 3.4 0 0 Z " fill="#695202" transform="translate(82,58)"/>
<path d="M0 0 C2 2 2 2 2.1953125 5.0390625 C2.13020833 8.359375 2.06510417 11.6796875 2 15 C7.61 15 13.22 15 19 15 C19 17.64 19 20.28 19 23 C18.34 23 17.68 23 17 23 C17 21.02 17 19.04 17 17 C15.85660156 17.01160156 14.71320313 17.02320312 13.53515625 17.03515625 C12.04427246 17.04453288 10.55338691 17.05363321 9.0625 17.0625 C8.30775391 17.07087891 7.55300781 17.07925781 6.77539062 17.08789062 C4.85005687 17.09652441 2.92464419 17.05224333 1 17 C0 16 0 16 -0.09765625 12.40234375 C-0.0909822 10.91403133 -0.07902183 9.42573568 -0.0625 7.9375 C-0.05798828 7.17888672 -0.05347656 6.42027344 -0.04882812 5.63867188 C-0.0370068 3.75908129 -0.01907078 1.87953101 0 0 Z " fill="#F7CC28" transform="translate(78,55)"/>
<path d="M0 0 C1.77049689 -0.05410687 3.54146849 -0.09284119 5.3125 -0.125 C6.29863281 -0.14820313 7.28476563 -0.17140625 8.30078125 -0.1953125 C11 0 11 0 14 2 C13.5020163 5.73487777 13.12508244 7.81237635 11 11 C8.43359375 11.328125 8.43359375 11.328125 5.4375 11.25 C4.44621094 11.23453125 3.45492187 11.2190625 2.43359375 11.203125 C0 11 0 11 -1 10 C-1.13568319 6.33655389 -1.16461426 3.49384279 0 0 Z M1 1 C1 3.31 1 5.62 1 8 C4.3 8 7.6 8 11 8 C11.67958603 5.60280568 11.67958603 5.60280568 12 3 C10.21342243 0.78629949 10.21342243 0.78629949 7.8359375 0.8046875 C7.02382812 0.82789063 6.21171875 0.85109375 5.375 0.875 C4.14910156 0.90207031 4.14910156 0.90207031 2.8984375 0.9296875 C1.95871094 0.96449219 1.95871094 0.96449219 1 1 Z " fill="#CB9C11" transform="translate(131,55)"/>
<path d="M0 0 C0.99 0.33 1.98 0.66 3 1 C2.484375 1.70125 1.96875 2.4025 1.4375 3.125 C-0.32315726 6.64631452 -0.07742543 8.27045042 1 12 C2.76136355 14.18331689 2.76136355 14.18331689 4.9453125 14.1953125 C7.97265625 14.09765625 7.97265625 14.09765625 11 14 C10.67 15.32 10.34 16.64 10 18 C5.86001651 18.32470459 3.66000999 18.4304413 0.125 16.125 C-2.7945901 13.2054099 -3.170761 11.58387944 -3.25 7.5625 C-3.28867187 6.38880859 -3.28867187 6.38880859 -3.328125 5.19140625 C-2.92823089 2.52068491 -2.05300878 1.68022561 0 0 Z " fill="#CD9F13" transform="translate(343,67)"/>
<path d="M0 0 C1.93681161 -0.08107583 3.8745934 -0.13922475 5.8125 -0.1875 C6.89144531 -0.22230469 7.97039062 -0.25710937 9.08203125 -0.29296875 C12 0 12 0 13.85546875 1.359375 C15 3 15 3 15.5 5.4375 C15 8 15 8 13.125 10.3125 C8.78939416 12.65372716 4.84225759 12.54699576 0 12 C-1 11 -1 11 -1.1328125 9.00390625 C-1.13023437 8.19824219 -1.12765625 7.39257812 -1.125 6.5625 C-1.12757813 5.75941406 -1.13015625 4.95632812 -1.1328125 4.12890625 C-1 2 -1 2 0 0 Z M1 1 C1 3.97 1 6.94 1 10 C2.62490954 10.02698189 4.24994633 10.04638757 5.875 10.0625 C7.23238281 10.07990234 7.23238281 10.07990234 8.6171875 10.09765625 C11.0168585 10.16249257 11.0168585 10.16249257 13 9 C13.2502157 6.08365871 13.2502157 6.08365871 13 3 C8.7975546 0.19836974 5.99895065 0.85510288 1 1 Z " fill="#8E6D0B" transform="translate(131,71)"/>
<path d="M0 0 C3.54909343 1.77454671 4.06777102 5.79163623 5.28666687 9.38978577 C7.8712679 17.81898034 7.54529023 26.21181936 7.3125 34.9375 C7.28733902 36.60348146 7.26453986 38.26950031 7.24414062 39.93554688 C7.18986865 43.95798098 7.10404972 47.97855843 7 52 C6.67 52 6.34 52 6 52 C5.98598145 50.59476074 5.98598145 50.59476074 5.97167969 49.16113281 C5.92720739 45.62689336 5.86539502 42.09378355 5.79248047 38.56005859 C5.76455725 37.04161323 5.74320294 35.52303024 5.72900391 34.00439453 C5.8983304 18.34855152 5.8983304 18.34855152 -1 5 C-0.625 2.375 -0.625 2.375 0 0 Z " fill="#996C00" transform="translate(63,31)"/>
<path d="M0 0 C1 2 1 2 0.5625 4.0625 C-0.4164356 9.17471924 -0.853976 14.03585519 1.25 18.875 C4.46362774 22.77726226 7.27577575 24.33664585 12.25 25.1875 C13.14203125 25.34605469 14.0340625 25.50460938 14.953125 25.66796875 C15.62859375 25.77753906 16.3040625 25.88710937 17 26 C17 26.33 17 26.66 17 27 C11.15698676 27.30752701 7.25212249 26.92906831 2 24 C-2.91128102 18.83023051 -3.27075869 14.54320253 -3.234375 7.67578125 C-2.95374715 4.47194664 -2.04856917 2.47535441 0 0 Z " fill="#392C05" transform="translate(159,64)"/>
<path d="M0 0 C0.66 0 1.32 0 2 0 C2.67610423 1.89248819 3.34050439 3.7891602 4 5.6875 C4.37125 6.74324219 4.7425 7.79898438 5.125 8.88671875 C5.9391857 11.78362056 6.17709796 14.01700623 6 17 C3 14 0 11 -3 8 C-2.01 5.36 -1.02 2.72 0 0 Z " fill="#534302" transform="translate(62,38)"/>
<path d="M0 0 C3.875 1.875 3.875 1.875 5 3 C5.1875 6.4375 5.1875 6.4375 5 10 C4.34 10.66 3.68 11.32 3 12 C0.375 11.625 0.375 11.625 -2 11 C-1.85957123 9.35369672 -1.71250671 7.70795821 -1.5625 6.0625 C-1.48128906 5.14597656 -1.40007812 4.22945312 -1.31640625 3.28515625 C-1 1 -1 1 0 0 Z " fill="#FEFBD9" transform="translate(72,19)"/>
<path d="M0 0 C0.94746094 -0.01417969 1.89492187 -0.02835938 2.87109375 -0.04296875 C5.65483036 0.19540637 7.24830051 0.64644165 9.5625 2.1875 C10.8125 4.8125 10.8125 4.8125 11.5625 7.1875 C10.6653125 6.445 10.6653125 6.445 9.75 5.6875 C2.9795971 2.50142805 -5.2222728 4.0984091 -12.4375 5.1875 C-8.44085608 0.91522547 -5.79072573 0.03928579 0 0 Z " fill="#C29612" transform="translate(232.4375,57.8125)"/>
<path d="M0 0 C5.51111111 3.23478261 5.51111111 3.23478261 7.4375 6.25 C8.21491513 10.0506962 8.17130841 13.28334831 7 17 C4.23789633 20.50861817 2.32144517 22.12465396 -2 23 C-1.566875 22.5875 -1.13375 22.175 -0.6875 21.75 C2.29889254 18.65300033 4.43982466 16.30237399 4.625 11.875 C3.94098175 7.63408682 2.8410598 6.10740916 0 3 C0 2.01 0 1.02 0 0 Z " fill="#C79A12" transform="translate(148,66)"/>
<path d="M0 0 C11.16711592 6.79332885 20.99257405 15.64232078 31 24 C26.82164697 24 24.78060196 21.72265558 21.6875 19.1875 C20.43916019 18.18184698 19.19045075 17.17665265 17.94140625 16.171875 C16.97485107 15.38973633 16.97485107 15.38973633 15.98876953 14.59179688 C13.99922575 12.9993803 11.9876493 11.44050952 9.96484375 9.890625 C9.32135986 9.3953833 8.67787598 8.9001416 8.01489258 8.38989258 C6.76915048 7.4325331 5.52034784 6.47914107 4.26831055 5.5300293 C2.80864573 4.39944492 1.39866356 3.20523137 0 2 C0 1.34 0 0.68 0 0 Z " fill="#9E7301" transform="translate(0,49)"/>
<path d="M0 0 C4.31248609 -0.02886537 8.62494762 -0.04675255 12.9375 -0.0625 C14.16919922 -0.07087891 15.40089844 -0.07925781 16.66992188 -0.08789062 C17.83974609 -0.09111328 19.00957031 -0.09433594 20.21484375 -0.09765625 C21.84087524 -0.10551147 21.84087524 -0.10551147 23.49975586 -0.11352539 C26 0 26 0 27 1 C27.04080783 2.99958364 27.04254356 5.00045254 27 7 C26.34 7 25.68 7 25 7 C25 5.35 25 3.7 25 2 C17.08 2 9.16 2 1 2 C0.67 1.34 0.34 0.68 0 0 Z " fill="#DCA914" transform="translate(193,48)"/>
<path d="M0 0 C4.32626551 1.46061074 7.37878019 3.66379455 10.9375 6.5 C15.8087406 10.33811951 20.75452938 14.03618449 25.8125 17.625 C26.42923584 18.06263672 27.04597168 18.50027344 27.68139648 18.95117188 C29.11956135 19.96938522 30.55956494 20.98500078 32 22 C31.67 22.66 31.34 23.32 31 24 C30.1028125 23.33355469 29.205625 22.66710937 28.28125 21.98046875 C27.02130101 21.04884634 25.76084359 20.11791132 24.5 19.1875 C23.83669678 18.69773682 23.17339355 18.20797363 22.48999023 17.70336914 C16.742424 13.48696369 10.87917175 9.45617132 4.9296875 5.5300293 C3.2522109 4.40271312 1.62069037 3.20753146 0 2 C0 1.34 0 0.68 0 0 Z " fill="#A17401" transform="translate(66,101)"/>
<path d="M0 0 C0.598125 0.226875 1.19625 0.45375 1.8125 0.6875 C2.1425 2.6675 2.4725 4.6475 2.8125 6.6875 C2.1525 6.6875 1.4925 6.6875 0.8125 6.6875 C0.4825 6.3575 0.1525 6.0275 -0.1875 5.6875 C-2.97913712 8.09518703 -4.08467557 10.44896616 -5.375 13.875 C-5.71917969 14.77605469 -6.06335937 15.67710938 -6.41796875 16.60546875 C-6.67191406 17.29253906 -6.92585938 17.97960937 -7.1875 18.6875 C-8.33167457 14.86015547 -7.72900693 13.36998877 -6.1875 9.6875 C-5.9709375 7.893125 -5.9709375 7.893125 -5.75 6.0625 C-5.1875 2.6875 -5.1875 2.6875 -3.875 0.6875 C-2.1875 -0.3125 -2.1875 -0.3125 0 0 Z " fill="#B89A21" transform="translate(64.1875,3.3125)"/>
<path d="M0 0 C4 0 8 0 12 0 C12.68835938 -0.03480469 13.37671875 -0.06960937 14.0859375 -0.10546875 C18.91659432 -0.27858103 22.08224366 -0.18317703 26 3 C26.33 3.66 26.66 4.32 27 5 C23.28400809 5.20086443 22.22791555 5.1519437 19 3 C17.04620501 2.72214568 17.04620501 2.72214568 15 2.8125 C13.9790625 2.82216797 13.9790625 2.82216797 12.9375 2.83203125 C10.78241791 2.94302254 10.78241791 2.94302254 8 4 C8 3.34 8 2.68 8 2 C5.36 2 2.72 2 0 2 C0 1.34 0 0.68 0 0 Z " fill="#B08A10" transform="translate(252,58)"/>
<path d="M0 0 C3.875 0.875 3.875 0.875 5 2 C5.08685603 3.56172745 5.10702219 5.12729344 5.09765625 6.69140625 C5.09443359 7.63564453 5.09121094 8.57988281 5.08789062 9.55273438 C5.07951172 10.54595703 5.07113281 11.53917969 5.0625 12.5625 C5.05798828 13.55958984 5.05347656 14.55667969 5.04882812 15.58398438 C5.03700007 18.05604849 5.02051849 20.52799518 5 23 C7.64 23 10.28 23 13 23 C13 23.33 13 23.66 13 24 C9.7 24 6.4 24 3 24 C2.67 16.41 2.34 8.82 2 1 C1.34 0.67 0.68 0.34 0 0 Z " fill="#1F1802" transform="translate(285,67)"/>
<path d="M0 0 C0.99 0.33 1.98 0.66 3 1 C2.67854004 1.56170898 2.35708008 2.12341797 2.02587891 2.70214844 C0.90241943 5.21856933 0.69140607 7.02344205 0.5859375 9.765625 C0.52792969 11.09980469 0.52792969 11.09980469 0.46875 12.4609375 C0.42234375 13.84152344 0.42234375 13.84152344 0.375 15.25 C0.31699219 16.65378906 0.31699219 16.65378906 0.2578125 18.0859375 C0.16375656 20.39030796 0.08079814 22.6951266 0 25 C-2.97 24.67 -5.94 24.34 -9 24 C-9 23.67 -9 23.34 -9 23 C-6.69 23 -4.38 23 -2 23 C-2.01047363 22.44538086 -2.02094727 21.89076172 -2.03173828 21.31933594 C-2.07342004 18.79627041 -2.09936438 16.27327747 -2.125 13.75 C-2.14175781 12.87730469 -2.15851563 12.00460938 -2.17578125 11.10546875 C-2.18222656 10.26113281 -2.18867188 9.41679688 -2.1953125 8.546875 C-2.20578613 7.77182617 -2.21625977 6.99677734 -2.22705078 6.19824219 C-1.97326556 3.74116461 -1.22444152 2.12688458 0 0 Z " fill="#C99B12" transform="translate(261,66)"/>
<path d="M0 0 C0.33 0 0.66 0 1 0 C1.33 2.31 1.66 4.62 2 7 C6.95 7.33 11.9 7.66 17 8 C17 10.31 17 12.62 17 15 C16.34 15 15.68 15 15 15 C15 13.68 15 12.36 15 11 C14.00097656 10.93941406 13.00195312 10.87882812 11.97265625 10.81640625 C10.68230469 10.73261719 9.39195312 10.64882812 8.0625 10.5625 C6.13083984 10.44068359 6.13083984 10.44068359 4.16015625 10.31640625 C1 10 1 10 0 9 C-0.07179964 7.48071962 -0.08392007 5.95832518 -0.0625 4.4375 C-0.05347656 3.61121094 -0.04445312 2.78492188 -0.03515625 1.93359375 C-0.02355469 1.29550781 -0.01195312 0.65742187 0 0 Z " fill="#DDA914" transform="translate(199,58)"/>
<path d="M0 0 C3.0625 2.5625 3.0625 2.5625 5 5 C4.24976563 4.52433594 4.24976563 4.52433594 3.484375 4.0390625 C0.12758852 2.6351235 -3.16286294 2.53774346 -6.75 2.375 C-7.44738281 2.33632813 -8.14476562 2.29765625 -8.86328125 2.2578125 C-10.57510818 2.16401376 -12.28751682 2.08093826 -14 2 C-14 2.99 -14 3.98 -14 5 C-15.65 5.33 -17.3 5.66 -19 6 C-17.73721868 2.21165605 -16.47887048 1.77988722 -13 0 C-8.59128718 -1.38455444 -4.44720452 -1.19488947 0 0 Z " fill="#B38C0F" transform="translate(179,58)"/>
<path d="M0 0 C0 1.64620877 -0.01598905 3.29372486 -0.10546875 4.9375 C-0.13253906 5.618125 -0.15960938 6.29875 -0.1875 7 C-0.22230469 7.680625 -0.25710938 8.36125 -0.29296875 9.0625 C0.10034952 11.66364481 0.92393607 12.4178015 3 14 C5.19311319 14.95922962 5.19311319 14.95922962 7.5625 15.625 C11.89873418 16.94936709 11.89873418 16.94936709 14 18 C13.67 18.99 13.34 19.98 13 21 C13 20.34 13 19.68 13 19 C11.89591797 18.76216797 11.89591797 18.76216797 10.76953125 18.51953125 C0.22043309 15.99722376 0.22043309 15.99722376 -3 11 C-3.58614051 8.0344772 -3.39908887 6.09293878 -3 3 C-1.5 1 -1.5 1 0 0 Z " fill="#282003" transform="translate(402,61)"/>
<path d="M0 0 C0.66 0 1.32 0 2 0 C2 0.66 2 1.32 2 2 C3.41623216 2.05447047 4.83308191 2.09300508 6.25 2.125 C7.43335938 2.15980469 7.43335938 2.15980469 8.640625 2.1953125 C11.20731941 1.9828378 12.7916067 1.28654105 15 0 C16.98 1.32 18.96 2.64 21 4 C20.34 5.32 19.68 6.64 19 8 C18.6390625 7.33097656 18.278125 6.66195312 17.90625 5.97265625 C16.1059376 3.64662759 16.1059376 3.64662759 12.96875 3.93359375 C11.8240625 4.09988281 10.679375 4.26617187 9.5 4.4375 C3.43400262 5.30504692 3.43400262 5.30504692 1.09375 3.66015625 C0 2 0 2 0 0 Z " fill="#AB8510" transform="translate(310,79)"/>
<path d="M0 0 C0.33 0.66 0.66 1.32 1 2 C1.66 2 2.32 2 3 2 C3.50559908 3.43554025 4.0042749 4.8735202 4.5 6.3125 C4.7784375 7.11300781 5.056875 7.91351563 5.34375 8.73828125 C6 11 6 11 6 14 C6.99 14.33 7.98 14.66 9 15 C9 16.98 9 18.96 9 21 C8.34 21 7.68 21 7 21 C0 5.96954315 0 5.96954315 0 0 Z " fill="#E2B91E" transform="translate(91,104)"/>
<path d="M0 0 C4.87626457 1.39321845 7.07577973 3.93858296 10 8 C11.47416599 11.51531889 11.07245286 15.23245128 11 19 C8.80291879 16.80291879 8.35322321 15.48226667 7.4375 12.5625 C7.18871094 11.78003906 6.93992187 10.99757813 6.68359375 10.19140625 C6.45800781 9.46824219 6.23242188 8.74507812 6 8 C5.67 7.01 5.34 6.02 5 5 C4.34 5 3.68 5 3 5 C1.375 2.5 1.375 2.5 0 0 Z " fill="#BD9311" transform="translate(355,59)"/>
<path d="M0 0 C2.51083114 1.25541557 2.87125446 2.50063488 4 5 C7.56024973 5.07120499 10.80538905 5.03671905 14.3125 4.375 C15.199375 4.25125 16.08625 4.1275 17 4 C17.66 4.66 18.32 5.32 19 6 C18.625 8.625 18.625 8.625 18 11 C16.02 11.33 14.04 11.66 12 12 C12.639375 11.566875 13.27875 11.13375 13.9375 10.6875 C16.26746003 9.08760823 16.26746003 9.08760823 17 6 C16.360625 6.165 15.72125 6.33 15.0625 6.5 C12.44980739 6.92656206 10.01430731 7.16388883 7.375 7.25 C6.61960937 7.27578125 5.86421875 7.3015625 5.0859375 7.328125 C3 7 3 7 1.2265625 5.734375 C0 4 0 4 0 0 Z " fill="#DBA815" transform="translate(309,78)"/>
<path d="M0 0 C2.53905844 1.77734091 3.50147198 2.85426876 4.5 5.75 C3.51 6.08 2.52 6.41 1.5 6.75 C1.17 5.76 0.84 4.77 0.5 3.75 C-3.18087353 1.29608431 -5.94355588 1.52197241 -10.1875 1.625 C-10.88939453 1.63402344 -11.59128906 1.64304688 -12.31445312 1.65234375 C-14.04311525 1.67586296 -15.77160145 1.71173287 -17.5 1.75 C-14.78633032 -3.67733936 -4.68246212 -1.6723079 0 0 Z " fill="#B78F11" transform="translate(420.5,59.25)"/>
<path d="M0 0 C2.91647456 2.2032447 4.05703219 3.88080713 4.98828125 7.40625 C5.02953125 8.293125 5.07078125 9.18 5.11328125 10.09375 C4.55640625 9.330625 3.99953125 8.5675 3.42578125 7.78125 C0.95645967 4.9114979 -0.38163639 3.51069819 -3.88671875 2.09375 C-7.5678892 1.85457791 -11.20374094 1.91959868 -14.88671875 2.09375 C-12.56394367 -2.55180016 -4.1716537 -2.00377569 0 0 Z " fill="#B99011" transform="translate(293.88671875,58.90625)"/>
<path d="M0 0 C0.66 0 1.32 0 2 0 C2.33 0.99 2.66 1.98 3 3 C2.00390625 4.82421875 2.00390625 4.82421875 0.5625 6.6875 C0.08941406 7.31011719 -0.38367188 7.93273438 -0.87109375 8.57421875 C-1.24363281 9.04472656 -1.61617188 9.51523437 -2 10 C-3.65 9.67 -5.3 9.34 -7 9 C-7.33 8.01 -7.66 7.02 -8 6 C-5.35261084 4.5393715 -4.10551666 4 -1 4 C-0.67 2.68 -0.34 1.36 0 0 Z " fill="#FAEB9B" transform="translate(84,30)"/>
<path d="M0 0 C0.99 0.33 1.98 0.66 3 1 C2.01 2.485 2.01 2.485 1 4 C2.32 4.33 3.64 4.66 5 5 C5 5.66 5 6.32 5 7 C1.04 7 -2.92 7 -7 7 C-2.25 1.125 -2.25 1.125 0 0 Z " fill="#D1A60E" transform="translate(95,60)"/>
<path d="M0 0 C6.625 -0.25 6.625 -0.25 10 2 C10 3.32 10 4.64 10 6 C5.05 6.33 0.1 6.66 -5 7 C-5 6.34 -5 5.68 -5 5 C-1.04 4.34 2.92 3.68 7 3 C4.69 2.34 2.38 1.68 0 1 C0 0.67 0 0.34 0 0 Z " fill="#C59810" transform="translate(228,66)"/>
<path d="M0 0 C2.31 0.33 4.62 0.66 7 1 C7.66 2.65 8.32 4.3 9 6 C6.47524538 7.26237731 4.68799534 7.09856404 1.875 7.0625 C0.96492187 7.05347656 0.05484375 7.04445313 -0.8828125 7.03515625 C-1.58148438 7.02355469 -2.28015625 7.01195313 -3 7 C-3.66 5.68 -4.32 4.36 -5 3 C-4.01 2.67 -3.02 2.34 -2 2 C-2 2.66 -2 3.32 -2 4 C0.64 4 3.28 4 6 4 C6 3.34 6 2.68 6 2 C3.03 1.505 3.03 1.505 0 1 C0 0.67 0 0.34 0 0 Z " fill="#896B0C" transform="translate(170,65)"/>
<path d="M0 0 C2.875 -0.125 2.875 -0.125 6 0 C6.66 0.66 7.32 1.32 8 2 C7.875 4.5 7.875 4.5 7 7 C4.1296662 9.15275035 1.51952747 9.37047658 -2 9 C-2.66 8.34 -3.32 7.68 -4 7 C-4 5.68 -4 4.36 -4 3 C-3.34 3 -2.68 3 -2 3 C-1.67 3.99 -1.34 4.98 -1 6 C0.98 6 2.96 6 5 6 C5.33 4.68 5.66 3.36 6 2 C3.03 1.505 3.03 1.505 0 1 C0 0.67 0 0.34 0 0 Z " fill="#83650B" transform="translate(230,76)"/>
<path d="M0 0 C0.33 0 0.66 0 1 0 C2.70733428 9.50021652 2.70733428 9.50021652 1.05859375 12.99609375 C-1.01672745 15.4802842 -3.31433726 17.20955817 -6 19 C-8.1875 18.625 -8.1875 18.625 -10 18 C-9.236875 17.54625 -8.47375 17.0925 -7.6875 16.625 C-5.76367186 15.46175508 -3.87058776 14.2470585 -2 13 C-1.19458793 9.89188713 -1.19458793 9.89188713 -0.8125 6.375 C-0.57466797 4.59222656 -0.57466797 4.59222656 -0.33203125 2.7734375 C-0.16767578 1.40058594 -0.16767578 1.40058594 0 0 Z " fill="#D1A212" transform="translate(363,71)"/>
<path d="M0 0 C2.31 0 4.62 0 7 0 C7.33 1.32 7.66 2.64 8 4 C5.59384348 6.65506927 3.82040233 7.92164697 0.21875 8.265625 C-2.53033855 8.25145444 -5.25655321 8.17296687 -8 8 C-8 7.67 -8 7.34 -8 7 C-7.30132812 6.97421875 -6.60265625 6.9484375 -5.8828125 6.921875 C-4.97273437 6.86515625 -4.06265625 6.8084375 -3.125 6.75 C-2.22007812 6.70359375 -1.31515625 6.6571875 -0.3828125 6.609375 C2.17110544 6.24388852 2.17110544 6.24388852 3.3203125 3.953125 C3.65675781 2.98632812 3.65675781 2.98632812 4 2 C2.68 1.34 1.36 0.68 0 0 Z " fill="#CC9E11" transform="translate(177,82)"/>
<path d="M0 0 C0.66 0 1.32 0 2 0 C2 4.62 2 9.24 2 14 C-1.06890187 15.53445094 -3.70094266 14.54984289 -7 14 C-7 13.67 -7 13.34 -7 13 C-4.69 13 -2.38 13 0 13 C0 8.71 0 4.42 0 0 Z " fill="#C19511" transform="translate(200,76)"/>
<path d="M0 0 C3.91436658 -0.4551589 5.60138447 -0.26291663 8.9375 1.9375 C11.51417961 5.76347881 11.24069364 7.69237125 10.58984375 12.109375 C10.39519531 12.73328125 10.20054687 13.3571875 10 14 C9.01 14.495 9.01 14.495 8 15 C8.06960938 13.96939453 8.06960938 13.96939453 8.140625 12.91796875 C8.17671875 12.01691406 8.2128125 11.11585937 8.25 10.1875 C8.29640625 9.29417969 8.3428125 8.40085937 8.390625 7.48046875 C8.23945361 4.86329425 8.23945361 4.86329425 6.125 3.25 C4.11816494 2.06950879 2.11173305 0.98044749 0 0 Z " fill="#2F2503" transform="translate(346,66)"/>
<path d="M0 0 C0 0.33 0 0.66 0 1 C-3.96 1 -7.92 1 -12 1 C-12 1.66 -12 2.32 -12 3 C-13.175625 3.4640625 -13.175625 3.4640625 -14.375 3.9375 C-16.92330128 4.92875038 -16.92330128 4.92875038 -19 6 C-17.84826645 3.53199953 -16.95216435 1.95216435 -15 0 C-9.86390259 -1.37797735 -5.17497114 -0.74749583 0 0 Z " fill="#AD8611" transform="translate(322,60)"/>
<path d="M0 0 C0.66 0 1.32 0 2 0 C2 1.98 2 3.96 2 6 C-1.63 6 -5.26 6 -9 6 C-9 4.68 -9 3.36 -9 2 C-8.34 2 -7.68 2 -7 2 C-7 2.66 -7 3.32 -7 4 C-4.69 4 -2.38 4 0 4 C0 2.68 0 1.36 0 0 Z " fill="#775B08" transform="translate(246,85)"/>
<path d="M0 0 C0.66 0.99 1.32 1.98 2 3 C1.34 3 0.68 3 0 3 C0 7.29 0 11.58 0 16 C-0.66 16 -1.32 16 -2 16 C-2 11.05 -2 6.1 -2 1 C-1.34 0.67 -0.68 0.34 0 0 Z " fill="#E8B116" transform="translate(200,73)"/>
<path d="M0 0 C2 1 2 1 3.2890625 4.30859375 C3.74210268 5.68237148 4.18708349 7.05882681 4.625 8.4375 C4.85445313 9.13166016 5.08390625 9.82582031 5.3203125 10.54101562 C7 15.70505487 7 15.70505487 7 18 C6.34 18 5.68 18 5 18 C4.18667257 15.89615302 3.37436583 13.79191143 2.5625 11.6875 C2.11003906 10.51574219 1.65757813 9.34398437 1.19140625 8.13671875 C0.42015245 6.10617185 -0.31312642 4.06062074 -1 2 C-0.67 1.34 -0.34 0.68 0 0 Z " fill="#AC850B" transform="translate(63,31)"/>
<path d="M0 0 C0.33 0 0.66 0 1 0 C1.02578125 1.24136719 1.0515625 2.48273438 1.078125 3.76171875 C1.13442082 5.40368028 1.19176783 7.045606 1.25 8.6875 C1.26417969 9.50412109 1.27835937 10.32074219 1.29296875 11.16210938 C1.50302375 16.35046785 2.12890697 19.19858665 6 23 C3 23 3 23 1.33081055 21.79174805 C-0.38150378 19.48635916 -0.34744042 18.18271546 -0.29296875 15.33203125 C-0.28330078 14.43935547 -0.27363281 13.54667969 -0.26367188 12.62695312 C-0.23853516 11.69818359 -0.21339844 10.76941406 -0.1875 9.8125 C-0.17396484 8.87212891 -0.16042969 7.93175781 -0.14648438 6.96289062 C-0.11113096 4.64134962 -0.06178674 2.32096347 0 0 Z " fill="#FACB24" transform="translate(78,79)"/>
<path d="M0 0 C1.3271261 3.9813783 1.06915913 7.85045227 1 12 C-0.65 10.68 -2.3 9.36 -4 8 C-2.87548273 5.0280615 -1.77706209 2.66559313 0 0 Z " fill="#564501" transform="translate(67,67)"/>
<path d="M0 0 C5.02254631 -0.2954439 7.89542386 0.01485372 12 3 C11.67 3.66 11.34 4.32 11 5 C10.236875 4.484375 9.47375 3.96875 8.6875 3.4375 C7.800625 2.963125 6.91375 2.48875 6 2 C5.01 2.33 4.02 2.66 3 3 C3 3.99 3 4.98 3 6 C1.68 5.67 0.36 5.34 -1 5 C-0.67 3.35 -0.34 1.7 0 0 Z " fill="#8D6D0C" transform="translate(407,65)"/>
<path d="M0 0 C1.65 0 3.3 0 5 0 C5.625 1.875 5.625 1.875 6 4 C5.34 4.66 4.68 5.32 4 6 C1.375 5.625 1.375 5.625 -1 5 C-0.67 3.35 -0.34 1.7 0 0 Z " fill="#FFFEF4" transform="translate(71,25)"/>
<path d="M0 0 C0.66 0 1.32 0 2 0 C2 1.65 2 3.3 2 5 C-1.63 5 -5.26 5 -9 5 C-9 3.68 -9 2.36 -9 1 C-8.34 1 -7.68 1 -7 1 C-7 1.66 -7 2.32 -7 3 C-4.69 3 -2.38 3 0 3 C0 2.01 0 1.02 0 0 Z " fill="#765B08" transform="translate(396,86)"/>
<path d="M0 0 C0.44730469 0.40992187 0.89460937 0.81984375 1.35546875 1.2421875 C7.07703136 6.34157593 11.29854608 8.0939466 19 9 C19 9.33 19 9.66 19 10 C13.15698676 10.30752701 9.25212249 9.92906831 4 7 C0 2.79487179 0 2.79487179 0 0 Z " fill="#171202" transform="translate(157,81)"/>
<path d="M0 0 C2.41854446 -0.13536629 4.82949783 -0.23420279 7.25 -0.3125 C8.27287109 -0.3753418 8.27287109 -0.3753418 9.31640625 -0.43945312 C11.328125 -0.48828125 11.328125 -0.48828125 15 0 C17.484375 2.51953125 17.484375 2.51953125 19 5 C18.67 5.66 18.34 6.32 18 7 C17.75636719 6.04867187 17.75636719 6.04867187 17.5078125 5.078125 C16.0469013 2.58271826 16.0469013 2.58271826 12.3046875 2.171875 C10.83003605 2.01245322 9.35317301 1.87254284 7.875 1.75 C7.12089844 1.67265625 6.36679688 1.5953125 5.58984375 1.515625 C3.72817329 1.32710141 1.86422062 1.16136762 0 1 C0 0.67 0 0.34 0 0 Z " fill="#E2AD16" transform="translate(165,60)"/>
<path d="M0 0 C0.56203125 0.31710938 1.1240625 0.63421875 1.703125 0.9609375 C4.15196317 2.06874525 6.08387855 2.38975399 8.75 2.625 C9.54921875 2.69976562 10.3484375 2.77453125 11.171875 2.8515625 C11.77515625 2.90054688 12.3784375 2.94953125 13 3 C12.67 3.99 12.34 4.98 12 6 C10.41532272 5.71572583 8.8322943 5.42225182 7.25 5.125 C6.36828125 4.96257812 5.4865625 4.80015625 4.578125 4.6328125 C2.13052256 4.03203736 0.19400143 3.22002883 -2 2 C-1.34 1.34 -0.68 0.68 0 0 Z " fill="#B18A10" transform="translate(403,79)"/>
<path d="M0 0 C3.63 0 7.26 0 11 0 C9.71034824 1.37562854 8.37310707 2.70766393 7 4 C6.34 4 5.68 4 5 4 C4.67 3.67 4.34 3.34 4 3 C3.01 3 2.02 3 1 3 C0.67 2.01 0.34 1.02 0 0 Z " fill="#524001" transform="translate(85,58)"/>
<path d="M0 0 C1.5625 1.625 1.5625 1.625 3 4 C2.6875 7.25 2.6875 7.25 2 10 C2.66 10 3.32 10 4 10 C4 10.66 4 11.32 4 12 C4.99 12.33 5.98 12.66 7 13 C5.68 13.33 4.36 13.66 3 14 C3 13.01 3 12.02 3 11 C2.34 11 1.68 11 1 11 C-0.20272819 8.59454362 -0.10071472 7.05003047 -0.0625 4.375 C-0.05347656 3.55773437 -0.04445313 2.74046875 -0.03515625 1.8984375 C-0.02355469 1.27195312 -0.01195313 0.64546875 0 0 Z " fill="#FDF5B4" transform="translate(68,20)"/>
<path d="M0 0 C0.99 0.33 1.98 0.66 3 1 C1.02 1.99 1.02 1.99 -1 3 C-0.34 4.65 0.32 6.3 1 8 C3.31 8 5.62 8 8 8 C8 8.66 8 9.32 8 10 C1.9453125 10.1953125 1.9453125 10.1953125 0 10 C-2 8 -2 8 -2.25 5 C-2 2 -2 2 0 0 Z " fill="#E2AD16" transform="translate(227,76)"/>
<path d="M0 0 C-0.66 1.98 -1.32 3.96 -2 6 C0.31 6.33 2.62 6.66 5 7 C5 7.33 5 7.66 5 8 C2.03 8 -0.94 8 -4 8 C-4.6875 5.6875 -4.6875 5.6875 -5 3 C-3.40083326 0.79162689 -2.76966516 0 0 0 Z " fill="#D6A413" transform="translate(314,65)"/>
<path d="M0 0 C0.99 0.33 1.98 0.66 3 1 C1.79157144 5.43090471 0.48331435 7.98112756 -3 11 C-2.505 9.6078125 -2.505 9.6078125 -2 8.1875 C-0.85032996 5.07970709 -0.85032996 5.07970709 -1 2 C-0.67 1.34 -0.34 0.68 0 0 Z " fill="#D09E05" transform="translate(68,91)"/>
<path d="M0 0 C2.375 0.25 2.375 0.25 5 1 C6.3125 3.0625 6.3125 3.0625 7 5 C6.34 5 5.68 5 5 5 C5.66 6.32 6.32 7.64 7 9 C6.01 8.67 5.02 8.34 4 8 C4 6.35 4 4.7 4 3 C2.68 3 1.36 3 0 3 C0 2.01 0 1.02 0 0 Z " fill="#372E01" transform="translate(43,58)"/>
<path d="M0 0 C0.66 0 1.32 0 2 0 C2.33 2.97 2.66 5.94 3 9 C0.5 6.6875 0.5 6.6875 -2 4 C-2 3.01 -2 2.02 -2 1 C-1.34 1.33 -0.68 1.66 0 2 C0 1.34 0 0.68 0 0 Z " fill="#514002" transform="translate(65,46)"/>
<path d="M0 0 C4.6875 0.78125 4.6875 0.78125 9.375 1.5625 C10.674375 1.7790625 10.674375 1.7790625 12 2 C12 2.33 12 2.66 12 3 C11.30132812 2.97679688 10.60265625 2.95359375 9.8828125 2.9296875 C8.51769531 2.90261719 8.51769531 2.90261719 7.125 2.875 C6.22007812 2.85179688 5.31515625 2.82859375 4.3828125 2.8046875 C1.81193006 2.75675164 1.81193006 2.75675164 0 5 C-0.33 4.01 -0.66 3.02 -1 2 C-0.67 1.34 -0.34 0.68 0 0 Z " fill="#E1AC15" transform="translate(401,82)"/>
<path d="M0 0 C0.66 0 1.32 0 2 0 C2 3.63 2 7.26 2 11 C1.01 11.495 1.01 11.495 0 12 C0 8.04 0 4.08 0 0 Z " fill="#594D05" transform="translate(35,85)"/>
<path d="M0 0 C2.8475987 0.75548537 5.36772716 1.68386358 8 3 C7.67 3.99 7.34 4.98 7 6 C6.34 5.34 5.68 4.68 5 4 C2.31160615 3.73008094 -0.29141936 3.91262643 -3 4 C-3 3.34 -3 2.68 -3 2 C-2.01 1.34 -1.02 0.68 0 0 Z " fill="#AE870F" transform="translate(179,79)"/>
<path d="M0 0 C0.66 0 1.32 0 2 0 C2 2.31 2 4.62 2 7 C2.66 7 3.32 7 4 7 C4.33 6.34 4.66 5.68 5 5 C5 5.99 5 6.98 5 8 C3.35 8.33 1.7 8.66 0 9 C0 6.03 0 3.06 0 0 Z " fill="#4B3B01" transform="translate(82,59)"/>
<path d="M0 0 C1.60379341 -0.05416188 3.20811406 -0.09286638 4.8125 -0.125 C5.70582031 -0.14820313 6.59914062 -0.17140625 7.51953125 -0.1953125 C10 0 10 0 13 2 C12.67 3.65 12.34 5.3 12 7 C11.690625 6.360625 11.38125 5.72125 11.0625 5.0625 C10.1654837 3.06389179 10.1654837 3.06389179 9 2 C7.48530552 1.76807135 5.96245438 1.58784762 4.4375 1.4375 C3.61121094 1.35371094 2.78492188 1.26992188 1.93359375 1.18359375 C1.29550781 1.12300781 0.65742188 1.06242187 0 1 C0 0.67 0 0.34 0 0 Z " fill="#1A1402" transform="translate(132,55)"/>
<path d="M0 0 C2.72727273 5.45454545 2.72727273 5.45454545 3 9 C1.5625 10.8125 1.5625 10.8125 0 12 C-0.66 11.67 -1.32 11.34 -2 11 C-1.34 7.37 -0.68 3.74 0 0 Z " fill="#FBD83D" transform="translate(62,23)"/>
<path d="M0 0 C0.66 0.66 1.32 1.32 2 2 C1.67 2.99 1.34 3.98 1 5 C0.34 5 -0.32 5 -1 5 C-1.99 5.33 -2.98 5.66 -4 6 C-4.33 4.68 -4.66 3.36 -5 2 C-3.35 1.34 -1.7 0.68 0 0 Z " fill="#F8ECB1" transform="translate(73,13)"/>
<path d="M0 0 C0.33 0 0.66 0 1 0 C1.2935903 3.05333909 1.42891945 5.95571805 1 9 C-1.3125 11.625 -1.3125 11.625 -4 13 C-4.99 12.67 -5.98 12.34 -7 12 C-6.360625 11.896875 -5.72125 11.79375 -5.0625 11.6875 C-4.0415625 11.3471875 -4.0415625 11.3471875 -3 11 C-2.67 10.01 -2.34 9.02 -2 8 C-1.34 8 -0.68 8 0 8 C0 5.36 0 2.72 0 0 Z " fill="#CC9E12" transform="translate(423,77)"/>
<path d="M0 0 C1.32 0.33 2.64 0.66 4 1 C0.535 3.97 0.535 3.97 -3 7 C-2.25 2.25 -2.25 2.25 0 0 Z " fill="#9D790D" transform="translate(338,61)"/>
<path d="M0 0 C1.32 0 2.64 0 4 0 C4.66 2.31 5.32 4.62 6 7 C5.01 7.33 4.02 7.66 3 8 C3 6.35 3 4.7 3 3 C2.01 2.67 1.02 2.34 0 2 C0 1.34 0 0.68 0 0 Z " fill="#534302" transform="translate(50,59)"/>
<path d="M0 0 C0.66 0 1.32 0 2 0 C2 0.66 2 1.32 2 2 C5.96 2.99 5.96 2.99 10 4 C10 4.33 10 4.66 10 5 C3.51707705 5.3669579 3.51707705 5.3669579 1.0625 3.625 C0 2 0 2 0 0 Z " fill="#C19611" transform="translate(310,79)"/>
<path d="M0 0 C0.66 0.33 1.32 0.66 2 1 C2 4.3 2 7.6 2 11 C0.02 11.99 0.02 11.99 -2 13 C-1.67 11.68 -1.34 10.36 -1 9 C-0.34 9 0.32 9 1 9 C0.67 6.03 0.34 3.06 0 0 Z " fill="#C99C12" transform="translate(151,53)"/>
<path d="M0 0 C3 1 3 1 5 4 C5.25760279 6.69452521 5.08900053 9.28548375 5 12 C4.67 12 4.34 12 4 12 C4 9.69 4 7.38 4 5 C3.01 4.67 2.02 4.34 1 4 C0.3125 1.9375 0.3125 1.9375 0 0 Z " fill="#B89112" transform="translate(420,72)"/>
<path d="M0 0 C0.66 0 1.32 0 2 0 C2.33 0.33 2.66 0.66 3 1 C3.99 0.67 4.98 0.34 6 0 C5.67 1.32 5.34 2.64 5 4 C3.35 4 1.7 4 0 4 C-0.33 3.34 -0.66 2.68 -1 2 C-0.67 1.34 -0.34 0.68 0 0 Z " fill="#6A5503" transform="translate(60,44)"/>
<path d="M0 0 C2.86724686 0.57344937 3.8614515 0.8614515 6 3 C6.125 5.625 6.125 5.625 6 8 C3.87961365 5.38485683 1.86908256 2.80362384 0 0 Z " fill="#F4CD34" transform="translate(62,77)"/>
<path d="M0 0 C3.07563891 1.53781946 3.70322574 3.91244223 5 7 C4.67 7.99 4.34 8.98 4 10 C4 9.34 4 8.68 4 8 C3.34 8 2.68 8 2 8 C0.74335022 5.09399739 0 3.20395416 0 0 Z " fill="#F8E165" transform="translate(63,6)"/>
<path d="M0 0 C6.625 -0.25 6.625 -0.25 10 2 C9.67 3.32 9.34 4.64 9 6 C8.443125 5.0409375 8.443125 5.0409375 7.875 4.0625 C5.41947207 1.36141928 3.55421195 1.31592995 0 1 C0 0.67 0 0.34 0 0 Z " fill="#211A02" transform="translate(228,66)"/>
<path d="M0 0 C0.66 0.33 1.32 0.66 2 1 C2.625 4.0625 2.625 4.0625 3 7 C2.01 6.67 1.02 6.34 0 6 C-0.75 4.0625 -0.75 4.0625 -1 2 C-0.67 1.34 -0.34 0.68 0 0 Z " fill="#F6DA52" transform="translate(77,40)"/>
<path d="M0 0 C2.4375 0.375 2.4375 0.375 5 1 C5.33 1.66 5.66 2.32 6 3 C4.02 3 2.04 3 0 3 C0 2.01 0 1.02 0 0 Z " fill="#705E02" transform="translate(43,89)"/>
<path d="M0 0 C1.98 0.99 1.98 0.99 4 2 C4 2.66 4 3.32 4 4 C3.01 4.33 2.02 4.66 1 5 C0.67 3.35 0.34 1.7 0 0 Z " fill="#433601" transform="translate(53,82)"/>
<path d="M0 0 C0.33 0 0.66 0 1 0 C1 1.65 1 3.3 1 5 C0.34 5 -0.32 5 -1 5 C-0.67 3.35 -0.34 1.7 0 0 Z " fill="#181401" transform="translate(36,74)"/>
<path d="M0 0 C0.99 0.495 0.99 0.495 2 1 C1.67 1.99 1.34 2.98 1 4 C0.67 2.68 0.34 1.36 0 0 Z " fill="#745D0A" transform="translate(98,107)"/>
<path d="M0 0 C1.32 0 2.64 0 4 0 C4 0.66 4 1.32 4 2 C2.68 1.34 1.36 0.68 0 0 Z " fill="#836D02" transform="translate(29,58)"/>
<path d="M0 0 C0.66 0 1.32 0 2 0 C2 0.66 2 1.32 2 2 C1.34 2 0.68 2 0 2 C0 1.34 0 0.68 0 0 Z " fill="#211B00" transform="translate(44,82)"/>
<path d="M0 0 C2 1 2 1 2 1 Z " fill="#FCE574" transform="translate(80,41)"/>
<path d="" fill="#443708" transform="translate(0,0)"/>
<path d="" fill="#584A02" transform="translate(0,0)"/>
<path d="" fill="#ECE1A8" transform="translate(0,0)"/>
<path d="" fill="#E7DCA4" transform="translate(0,0)"/>
</svg>
